<?xml version="1.0" encoding="utf-8"?>
<!-- Generator: Adobe Illustrator 17.1.0, SVG Export Plug-In . SVG Version: 6.00 Build 0)  -->
<!DOCTYPE svg PUBLIC "-//W3C//DTD SVG 1.1//EN" "http://www.w3.org/Graphics/SVG/1.1/DTD/svg11.dtd">
<svg version="1.1" id="Layer_1" xmlns="http://www.w3.org/2000/svg" xmlns:xlink="http://www.w3.org/1999/xlink" x="0px" y="0px"
	 viewBox="0 0 200 200" enable-background="new 0 0 200 200" xml:space="preserve">
<path fill="#CCCECC" d="M407.1,149.1c6.4,4.4-65.3,4.4-57.8,0c16.7-9.7,10.5-48,10.5-48h36.7C396.6,101.1,392.3,139,407.1,149.1z"/>
<path fill="#DADBDA" d="M473,125c0,3.3-2.7,6-6,6H283.1c-3.3,0-6-2.7-6-6V13.7c0-3.3,2.7-6,6-6h183.8c3.3,0,6,2.7,6,6V125z"/>
<path fill="#383838" d="M473,115.4H277V13.7c0-3.3,2.7-6,6-6h183.8c3.3,0,6,2.7,6,6V115.4z"/>
<g opacity="0.7">
	<path fill="#383838" d="M109.6,171.3c0,0-1.6,2.4-5.3,3.1c-3.8,0.6-6.3-1.1-6.3-1.1s-1.3-0.7-1.4-1.8l-3.4-19.3
		c-0.2-1.1,0.2-2.1,0.7-2.2l11.6-2.1c0.6-0.1,1.3,0.7,1.4,1.8l3.4,19.3C110.5,170.2,109.6,171.3,109.6,171.3z"/>
	<path fill="#C6C6C5" d="M116.7,164.7c0,0-4.1,4.5-13.2,6c-9.2,1.6-15.1-1.1-15.1-1.1s-2.9-1.1-3.2-3l-5.7-33
		c-0.4-1.9,0.6-3.6,2-3.9l28.2-4.9c1.4-0.3,2.9,1.1,3.2,3l5.7,33C119.1,162.7,116.7,164.7,116.7,164.7z"/>
	<path fill="#F6E5AB" d="M131.3,58.6c5.1,29.4-17.5,42.6-13.7,74.5c0.3,2.3-1.1,4.4-3.1,5.1c-4.2,1.6-11.2,4.1-15.6,4.9
		c-5.1,0.9-12.1,0.8-16.3,0.7c-2.2-0.1-4.2-1.7-4.7-3.9c-6.9-31.4-33.3-36.3-38.2-65.4c-4.3-25.2,12.6-49.2,38-53.5
		S126.9,33.3,131.3,58.6z"/>
	<polyline fill="none" stroke="#383838" stroke-width="2" stroke-linecap="round" stroke-miterlimit="10" points="89.6,142.4 
		84.6,114.3 73.4,95.4 	"/>
	
		<polyline fill="none" stroke="#383838" stroke-width="2" stroke-linecap="round" stroke-linejoin="round" stroke-miterlimit="10" points="
		73.4,95.4 76,87.8 82.2,93.9 84.4,86.4 90.8,92.4 93.1,83.3 98.9,91 101.1,82 107.2,87.7 	"/>
	<polyline fill="none" stroke="#383838" stroke-width="2" stroke-linecap="round" stroke-miterlimit="10" points="107.1,139.2 
		101.9,111.9 107.2,87.7 	"/>
	<path fill="none" stroke="#383838" stroke-width="2" stroke-linecap="round" stroke-miterlimit="10" d="M109.3,109.4"/>
	<path fill="#C6C6C5" stroke="#888885" stroke-width="3" stroke-linecap="round" stroke-miterlimit="10" d="M82.6,151.5
		c19.1-3.3,32.7-11.1,32.7-11.1"/>
	<path fill="#E2E2E2" d="M82.1,151c-0.6,0.1-1.1-0.3-1.1-0.3s0.3-0.8,1.2-1c19.3-3.4,32.1-10.9,32.2-10.9c0.8-0.4,1.4,0,1.4,0
		s-0.1,0.6-0.6,0.9C115.2,139.8,101.6,147.6,82.1,151z"/>
	<path fill="#C6C6C5" stroke="#888885" stroke-width="3" stroke-linecap="round" stroke-miterlimit="10" d="M85,165.2
		c19.1-3.3,32.7-11.1,32.7-11.1"/>
	<path fill="#E2E2E2" d="M84.5,164.7c-0.6,0.1-1.1-0.3-1.1-0.3s0.3-0.8,1.2-1c19.3-3.4,32.1-10.9,32.2-10.9c0.8-0.4,1.4,0,1.4,0
		s-0.1,0.6-0.6,0.9C117.5,153.5,104,161.3,84.5,164.7z"/>
	<path fill="#C6C6C5" stroke="#888885" stroke-width="3" stroke-linecap="round" stroke-miterlimit="10" d="M83.8,158.4
		c19.1-3.3,32.7-11.1,32.7-11.1"/>
	<path fill="#E2E2E2" d="M83.4,157.9c-0.6,0.1-1.1-0.3-1.1-0.3s0.3-0.8,1.2-1c19.3-3.4,32.1-10.9,32.2-10.9c0.8-0.4,1.4,0,1.4,0
		s-0.1,0.6-0.6,0.9C116.3,146.7,102.8,154.5,83.4,157.9z"/>
	<path fill="#F4F0E6" d="M85.7,25.2c25.5,0.9,37.1,24.5,37.1,24.5s-7.7,3-11.7,13.6c0,0-9.9-15.5-30.3-16.1
		C80.8,47.2,77.4,24.8,85.7,25.2z"/>
</g>
<path fill="#F6E5AB" d="M145,57.6c4.2,23.9-6.2,39.4-12.8,58.1c-3.7,10.5-27.4-0.7-32.7-0.9c-2.8-0.2-19.4-15.1-20.1-17.8
	c-3-14-8-17-0.7-39c10.9-32.7,54.9-27.3,57.6-22.4C140.1,42.3,143.6,49.5,145,57.6z"/>
<polyline fill="none" stroke="#383838" stroke-width="2" stroke-linecap="round" stroke-linejoin="round" stroke-miterlimit="10" points="
	74.2,82.8 84,92.4 87.6,80.5 97.7,90 101.4,75.6 110.5,87.7 114.1,73.4 123.7,82.6 "/>
<line fill="none" stroke="#383838" stroke-width="2" stroke-linecap="round" stroke-miterlimit="10" x1="116" y1="117.6" x2="123.7" y2="82.6"/>
<path fill="#F4F0E6" d="M119.3,30.4c2.5,3.1,3.5,5.5,3.5,5.5s-7.7,3-11.7,13.6c0,0-4.2-6.6-12.8-11.3
	C93.7,35.7,117.5,28.3,119.3,30.4z"/>
<path fill="#383838" d="M31.5,184.3c-1.2,1.3-4.6,0.1-4.6,0.1s-2.6-1.1-4.7-2.9s-3.4-4.4-3.4-4.4s-1.5-3.3-0.4-4.6l53.3-56.3
	c1.2-1.3,2.3-1.4,3.6-0.1l6.3,5.7c1.4,1.2,1.5,2.3,0.4,3.6L31.5,184.3z"/>
<path fill="#262626" d="M31.5,184.3c-1.2,1.3-4.6,0.1-4.6,0.1l-2.9-1.6l57.7-61.1c1.4,1.2,1.5,2.3,0.4,3.6L31.5,184.3z"/>
<polygon fill="#454545" points="19.5,178.2 18.7,177.1 77.2,116.5 77.2,117.6 "/>
<path fill="#C9C9C9" d="M82.5,127c-0.5,0.6-2.7-0.4-2.7-0.4s-3.5-1.6-5.6-3.6s-3.5-4.6-3.5-4.6s-1.2-2-0.7-2.6l11.2-14.4
	c0.5-0.6,1.7,1.6,2.7,2.4L93,112c0.9,0.8,3.2,2,2.7,2.6L82.5,127z"/>
<polygon fill="#A9A8A8" points="70.8,118.4 83.5,102.6 85.6,103.4 71.7,120 "/>
<path fill="#E2E2E2" d="M118.3,28.9c-25.7,0-46.6,20.9-46.6,46.6c0,25.7,20.9,46.6,46.6,46.6c25.7,0,46.6-20.9,46.6-46.6
	C165,49.8,144,28.9,118.3,28.9z M118.8,117.7c-23.3,0-42.2-18.9-42.2-42.2c0-23.3,18.9-42.2,42.2-42.2c23.3,0,42.2,18.9,42.2,42.2
	C161,98.8,142.1,117.7,118.8,117.7z"/>
<circle fill="none" stroke="#888888" stroke-miterlimit="10" cx="118.8" cy="75.5" r="46.5"/>
</svg>
