<?xml version="1.0" encoding="utf-8"?>
<!-- Generator: Adobe Illustrator 17.1.0, SVG Export Plug-In . SVG Version: 6.00 Build 0)  -->
<!DOCTYPE svg PUBLIC "-//W3C//DTD SVG 1.1//EN" "http://www.w3.org/Graphics/SVG/1.1/DTD/svg11.dtd">
<svg version="1.1" id="Layer_1" xmlns="http://www.w3.org/2000/svg" xmlns:xlink="http://www.w3.org/1999/xlink" x="0px" y="0px"
	 viewBox="0 0 512 512" enable-background="new 0 0 512 512" xml:space="preserve">
<g>
	<path d="M254.9,7.9C115.1,7.9,1.8,121.2,1.8,261c0,111.8,72.5,206.7,173.1,240.1c12.7,2.3,17.3-5.5,17.3-12.2c0-6-0.2-21.9-0.3-43
		c-70.4,15.3-85.3-33.9-85.3-33.9c-11.5-29.2-28.1-37-28.1-37c-23-15.7,1.7-15.4,1.7-15.4c25.4,1.8,38.8,26.1,38.8,26.1
		c22.6,38.7,59.2,27.5,73.7,21c2.3-16.4,8.8-27.5,16.1-33.9c-56.2-6.4-115.3-28.1-115.3-125.1c0-27.6,9.9-50.2,26-67.9
		c-2.6-6.4-11.3-32.1,2.5-67c0,0,21.2-6.8,69.6,26c20.2-5.6,41.8-8.5,63.4-8.5c21.5,0.1,43.2,2.9,63.4,8.5
		c48.3-32.8,69.5-26,69.5-26c13.8,34.9,5.1,60.6,2.5,67c16.2,17.7,26,40.3,26,67.9c0,97.2-59.2,118.6-115.6,124.9
		c9.1,7.8,17.2,23.3,17.2,46.9c0,33.8-0.3,61.1-0.3,69.4c0,6.8,4.5,14.7,17.4,12.2C435.5,467.6,508,372.8,508,261
		C508,121.2,394.7,7.9,254.9,7.9z"/>
</g>
</svg>
