<?xml version="1.0" encoding="utf-8"?>
<!-- Generator: Adobe Illustrator 17.1.0, SVG Export Plug-In . SVG Version: 6.00 Build 0)  -->
<!DOCTYPE svg PUBLIC "-//W3C//DTD SVG 1.1//EN" "http://www.w3.org/Graphics/SVG/1.1/DTD/svg11.dtd">
<svg version="1.1" id="Layer_1" xmlns="http://www.w3.org/2000/svg" xmlns:xlink="http://www.w3.org/1999/xlink" x="0px" y="0px"
	 viewBox="0 0 512 512" enable-background="new 0 0 512 512" xml:space="preserve">
<path d="M188.3,499c0-0.1-0.1-0.2-0.1-0.2c-4.2-1-4.6-2.5-4.9-6.7c0-0.2,0-0.4,0-0.6c0-25.1,0-50.3,0-75.4
	c0.1-51.8,0.3-103.6,0.3-155.4c0-27-0.2-53.9-0.3-80.9c0-1.2,0.1-2.4,0.3-3.6c0.3-2,1.6-3.4,3.6-3.6c2.6-0.3,5.3-0.3,7.9-0.3
	c1,0,2,0.2,3,0.2c23.9,0,47.9,0,71.8,0c2.2,0,4.5-0.1,6.7,0c2.6,0.2,4,1.6,4,4.2c0.1,3.7-0.1,7.4-0.1,11.1c0,5.5,0.1,11.1,0.1,16.6
	c0,3.1,0,6.2,0,9.3c0,0.7,0,1.4,0,2.1c1.5,0.6,1.5,0.6,2.3-0.5c3.3-5.3,7-10.4,11.1-15.1c6.4-7.3,13.8-13.3,22-18.5
	c12.7-8.1,26.6-13.2,41.5-15.6c4.7-0.8,9.5-1.2,14.3-1.4c4.3-0.3,8.7-0.4,13.1-0.3c16.5,0.7,32.7,2.8,48.2,8.7
	c11.2,4.2,21.3,10.3,30.1,18.6c7.5,7,13.6,15,18.4,24.1c5.7,10.6,9.3,21.9,12.1,33.5c2.3,9.8,3.8,19.8,4.7,29.8
	c0.9,9.8,1.4,19.6,1.3,29.3c0,0.6,0.2,1.1,0.3,1.7c0,61.5,0,123,0,184.5c-0.6,2-1.8,3.5-3.9,4c-0.4,0.1-0.8,0.3-1.2,0.4
	c-2.4,0-4.7,0-7.1,0c-0.7-0.1-1.4-0.3-2-0.3c-10.9,0-21.7,0-32.6,0c-1.7,0-3.4-0.3-5.1-0.3c-1.6,0-3.1,0.3-4.7,0.3
	c-10.6,0-21.2,0-31.8,0c-0.7,0-1.4,0.2-2,0.3c-2,0-4,0-5.9,0c-0.6-0.2-1.2-0.4-1.9-0.6c-2.1-0.6-3.1-2-3.3-4.2
	c-0.1-0.8-0.1-1.6-0.1-2.4c0-53.6,0-107.3,0-160.9c0-4.2-0.2-8.3-0.3-12.5c-0.1-6.8-0.8-13.5-2-20.2c-1.5-7.9-3.7-15.6-7.6-22.7
	c-5.1-9.2-12.6-15.6-22.5-19.2c-6.7-2.4-13.7-2.8-20.6-2.9c-4.7-0.1-9.3,0.3-13.9,1.1c-16.5,3-29,11.5-36.7,26.6
	c-3.5,6.9-5.7,14.2-7.1,21.7c-2,9.6-2.6,19.3-2.7,29c-0.2,15.1-0.3,30.2-0.3,45.3c0,22.6,0.2,45.4,0.3,68c0,15.5,0,31,0,46.5
	c0,1-0.2,2.1-0.3,3.1c-0.3,1.4-1.1,2.5-2.5,3.1c-0.8,0.3-1.7,0.6-2.5,0.9c-2.8,0-5.5,0-8.3,0c-0.5-0.1-1-0.3-1.5-0.3
	c-10.6-0.1-21.2-0.3-31.8-0.3c-13.2,0-26.5,0.2-39.7,0.3c-0.5,0-1,0.2-1.5,0.3C193.6,499,191,499,188.3,499z"/>
<path d="M23.7,499c-0.6-0.2-1.2-0.3-1.9-0.5c-1.9-0.5-2.9-1.8-3.2-3.6c-0.2-0.8-0.2-1.7-0.2-2.5c0-10.9,0-21.8,0-32.7
	c0.1-81.1,0.1-162.2,0.1-243.3c0-12.4-0.1-24.8-0.1-37.2c0-1.1,0.2-2.2,0.3-3.3c0.4-1.8,1.6-3,3.4-3.1c3-0.3,5.9-0.3,8.9-0.3
	c0.8,0,1.7,0.2,2.5,0.2c24.3,0,48.5,0,72.9,0c2.4,0,4.7-0.2,7.1-0.2c1,0,2.1,0.2,3.1,0.3c1.7,0.3,2.7,1.4,3.1,3
	c0.3,1.1,0.4,2.2,0.4,3.3c0,22.7,0,45.5,0,68.3c-0.1,57.1-0.2,114.1-0.3,171.2c0,24.3,0.2,48.7,0.3,73c0,1-0.2,2-0.3,3
	c-0.2,2.5-1.6,3.7-4,4.2c-0.3,0.1-0.6,0.2-0.8,0.3c-1.9,0-3.7,0-5.5,0c-0.6-0.1-1.3-0.3-1.9-0.3c-25.4,0-50.8,0-76.3,0
	c-0.6,0-1.3,0.2-1.9,0.3C27.6,499,25.6,499,23.7,499z"/>
<path d="M73.9,10.4c1.4,0.3,3,0.4,4.4,0.7c11.6,1.7,21.8,6.5,30.5,14.3c10.3,9.2,16.9,20.8,19,34.6c2.5,16.7-1.4,31.8-11.7,45.1
	c-9,11.7-20.8,19.3-35.4,22.2c-11.9,2.4-23.4,1.1-34.4-3.8c-18.1-8.1-29.6-21.9-34.5-41.1c-0.7-2.6-0.9-5.4-1.4-8.1
	c-0.1-0.3-0.3-0.6-0.3-0.8c0-2.9,0-5.8,0-8.7c0.3-1,0.6-2,0.7-3c0.8-6.6,2.7-12.8,5.7-18.7c3.6-7,8.4-13.2,14.4-18.3
	c9.6-8.1,20.6-13,33.2-13.9c0.3,0,0.6-0.2,0.8-0.3C68.1,10.4,71,10.4,73.9,10.4z"/>
</svg>
