<?xml version="1.0" encoding="utf-8"?>
<!-- Generator: Adobe Illustrator 17.1.0, SVG Export Plug-In . SVG Version: 6.00 Build 0)  -->
<!DOCTYPE svg PUBLIC "-//W3C//DTD SVG 1.1//EN" "http://www.w3.org/Graphics/SVG/1.1/DTD/svg11.dtd">
<svg version="1.1" id="Layer_1" xmlns="http://www.w3.org/2000/svg" xmlns:xlink="http://www.w3.org/1999/xlink" x="0px" y="0px"
	 viewBox="0 0 80 80" enable-background="new 0 0 80 80" xml:space="preserve">
<g id="_x39_06-chat-3-selected_x40_2x.png">
	<g>
		<path d="M62.5,3.5H17.5C8.2,3.5,0.7,11,0.7,20.3v25.3c0,9.3,7.5,16.8,16.8,16.8h2.8v14l19.7-14h22.5c9.3,0,16.8-7.5,16.8-16.8
			V20.3C79.3,11,71.8,3.5,62.5,3.5z M23.2,38.6c-3.1,0-5.6-2.5-5.6-5.6s2.5-5.6,5.6-5.6c3.1,0,5.6,2.5,5.6,5.6S26.3,38.6,23.2,38.6z
			 M40,38.6c-3.1,0-5.6-2.5-5.6-5.6s2.5-5.6,5.6-5.6c3.1,0,5.6,2.5,5.6,5.6S43.1,38.6,40,38.6z M56.8,38.6c-3.1,0-5.6-2.5-5.6-5.6
			s2.5-5.6,5.6-5.6c3.1,0,5.6,2.5,5.6,5.6S59.9,38.6,56.8,38.6z"/>
	</g>
</g>
</svg>
