<?xml version="1.0" encoding="utf-8"?>
<!-- Generator: Adobe Illustrator 17.1.0, SVG Export Plug-In . SVG Version: 6.00 Build 0)  -->
<!DOCTYPE svg PUBLIC "-//W3C//DTD SVG 1.1//EN" "http://www.w3.org/Graphics/SVG/1.1/DTD/svg11.dtd">
<svg version="1.1" id="Layer_1" xmlns="http://www.w3.org/2000/svg" xmlns:xlink="http://www.w3.org/1999/xlink" x="0px" y="0px"
	 viewBox="0 0 512 512" enable-background="new 0 0 512 512" xml:space="preserve">
<g>
	<path d="M2.2,407.8c0-104.3,0-208.6,0-312.9c55,0,110.1,0,165.1,0c4.7,1,8.9,1.6,13.6,2.6c40.4,6.3,65.5,32,68.7,72.3
		c1.6,19.9-1,38.8-15.2,54c-5.8,6.3-13.6,11-19.9,16.8c5.8,3.1,12.1,6.3,18.3,11c17.8,13.6,26.2,32.5,27.3,54
		c2.6,34.6-9.4,62.9-37.2,84.4c-18.3,14.2-40.9,17.8-62.9,18.3C107.1,408.3,54.7,407.8,2.2,407.8z M66.2,352.7c29.4,0,58.2,1,86.5,0
		c29.9-1,41.9-19.9,40.9-46.6c-1-19.4-12.1-32.5-31.4-33.5c-31.4-2.1-63.4-1.6-94.9-1.6c0,0-0.5,0-0.5,0.5
		C66.2,298.2,66.2,325.5,66.2,352.7z M65.7,217.5c1,0.5,1.6,0.5,2.6,0.5c25.7,0,51.9,0.5,77.6-0.5c9.4-0.5,18.9-3.1,27.3-6.8
		c18.3-7.3,17.8-42.5,4.7-51.9c-3.1-2.1-6.3-4.7-10-5.2c-8.4-1.6-16.8-3.7-25.2-3.7c-21.5-0.5-43,0-63.9-0.5c-4.2,0-7.9,0-12.1,0
		c0,1.6-0.5,2.1-0.5,3.1C65.7,174,65.7,195.5,65.7,217.5z"/>
	<path d="M507.5,278.3c0,10,0,20.4,0,30.4c-2.6,0-5.2,0.5-7.9,0.5c-50.8,0-101.7,0-153.1,0c-2.6,0-5.2,0-8.4,0
		c0.5,4.7,1,8.4,1.6,12.6c3.7,22.5,18.9,38.8,40.4,43c25.7,5.2,47.7-0.5,60.3-21.5c1-2.1,4.2-3.1,6.8-3.7c17.3-0.5,34.6,0,51.9,0
		c1.6,0,3.1,0.5,5.2,0.5c-1,4.7-2.1,8.9-3.7,12.6c-14.7,32.5-39.8,51.9-73.9,59.2c-7.3,1.6-20.4,3.7-35.1,3.7l0,0
		c0,0-19.4-1-40.9-7.9c-34.1-11-58.7-33-68.1-68.7c-7.9-30.9-7.9-62.4,1-93.3c10-33.5,31.4-56.6,64.5-69.2c21-7.9,43-8.4,65-5.8
		c44.6,5.2,78.6,35.1,89.1,78.6C504.9,259.4,505.9,268.9,507.5,278.3z M443.6,268.9c-0.5-28.3-22-49.8-56.6-48.2
		c-28.3,1.6-45.1,26.2-45.6,48.2C375.4,268.9,409,268.9,443.6,268.9z"/>
	<path d="M455.6,113.2c0,10.5,0,20.4,0,30.9c-45.1,0-90.2,0-135.2,0c0-10.5,0-20.4,0-30.9C365.5,113.2,410.6,113.2,455.6,113.2z"/>
</g>
</svg>
