<?xml version="1.0" encoding="utf-8"?>
<!-- Generator: Adobe Illustrator 17.1.0, SVG Export Plug-In . SVG Version: 6.00 Build 0)  -->
<!DOCTYPE svg PUBLIC "-//W3C//DTD SVG 1.1//EN" "http://www.w3.org/Graphics/SVG/1.1/DTD/svg11.dtd">
<svg version="1.1" id="Layer_1" xmlns="http://www.w3.org/2000/svg" xmlns:xlink="http://www.w3.org/1999/xlink" x="0px" y="0px"
	 viewBox="0 0 512 512" enable-background="new 0 0 512 512" xml:space="preserve">
<path d="M512,384c0,11.2-3.2,21.6-8.2,30.8L342.1,233.9L502,94c6.2,9.9,10,21.5,10,34V384z M256,266.8L478.5,72.1
	c-9.1-5-19.4-8.1-30.5-8.1H64c-11.1,0-21.4,3.1-30.5,8.1L256,266.8z M318,255l-51.5,45.1c-3,2.6-6.8,3.9-10.5,3.9s-7.5-1.3-10.5-3.9
	L194,255L30.2,438.2c9.8,6.2,21.3,9.8,33.8,9.8h384c12.4,0,23.9-3.7,33.8-9.8L318,255z M10,94c-6.2,9.9-10,21.5-10,34v256
	c0,11.2,3.1,21.6,8.2,30.8l161.6-180.9L10,94z"/>
</svg>
