<?xml version="1.0" encoding="utf-8"?>
<!-- Generator: Adobe Illustrator 17.1.0, SVG Export Plug-In . SVG Version: 6.00 Build 0)  -->
<!DOCTYPE svg PUBLIC "-//W3C//DTD SVG 1.1//EN" "http://www.w3.org/Graphics/SVG/1.1/DTD/svg11.dtd">
<svg version="1.1" id="Layer_1" xmlns="http://www.w3.org/2000/svg" xmlns:xlink="http://www.w3.org/1999/xlink" x="0px" y="0px"
	 viewBox="0 251.1 595.3 90.7" enable-background="new 0 251.1 595.3 90.7" xml:space="preserve">
<g>
	<path fill="#1EBAB8" d="M404.9,312.1c0,5.9,3.9,8.5,9.8,8.5c5.9,0,9.2-4.6,9.8-10.5c-0.7-12.5-12.5-11.8-21.7-11.8v-2.6l11.2-23.6
		h-24.9v-19.7h54.5v3.3l-15.8,28.9c13.8,3.3,17.7,14.4,17.7,25.6c0,14.4-10.5,30.2-30.2,30.2c-6.6,0-11.2-1.3-15.8-3.3
		c-7.9-4.6-14.4-13.1-14.4-24.3C392.5,312.1,399,312.1,404.9,312.1z"/>
	<path fill="#1EBAB8" d="M521.8,280.6c0,9.8,0,20.3,0,30.2c0,19-14.4,29.5-32.8,29.5c-17.1,0-32.2-10.5-32.2-29.5
		c0-9.8,0-20.3,0-30.2c0-19,14.4-29.5,32.2-29.5C507.3,251.1,521.8,261.6,521.8,280.6z M501.4,282.6c0-9.2,0,7.9,0-1.3
		c0-6.6-5.3-10.5-11.8-10.5c-6.6,0-11.2,3.3-11.2,10.5c0,9.2,0-7.9,0,1.3c0,6.6,5.3,10.5,11.2,10.5
		C496.2,293.1,501.4,289.8,501.4,282.6z"/>
	<path fill="#1EBAB8" d="M553.9,282c19.7-1.3,39.4,3.3,39.4,28.2c0.7,14.4-10.5,30.2-30.2,30.2c-16.4,0-28.2-10.5-28.9-28.2h19
		c0.7,5.9,3.9,8.5,9.8,8.5s9.8-3.3,9.8-10.5c-0.7-5.3-3.3-7.9-7.9-9.2c-8.5-2.6-23-0.7-29.5-0.7v-47.9h53.8v19h-35.4V282H553.9z"/>
	<path fill="#383838" d="M19,323.3h36.1v17.1H0v-87.3h19V323.3z"/>
	<path fill="#383838" d="M90.6,325.3l-7.2,14.4H63.7v-2.6l41.3-85.3h8.5l40,86v2.6h-19.7l-6.6-14.4L90.6,325.3L90.6,325.3z
		 M97.1,309.5h24.3l-11.8-28.9L97.1,309.5z"/>
	<path fill="#383838" d="M219.2,295.1c7.9,3.3,12.5,10.5,12.5,19.7c0,15.8-9.8,25.6-27.6,25.6h-40.7v-87.3h37.4
		c16.4,0,27.6,9.8,27.6,25.6C227.7,285.2,224.5,291.1,219.2,295.1z M181.8,268.8v19.7h17.1c6.6,0,10.5-3.3,10.5-9.2
		c0-6.6-3.9-10.5-10.5-10.5H181.8L181.8,268.8z M181.8,303.6v19.7h21c6.6,0,9.8-3.9,10.5-9.8c0-3.3-1.3-6.6-3.9-8.5
		c-2-1.3-4.6-2-7.2-2h-20.3v0.6H181.8z"/>
	<path fill="#383838" d="M300.6,268.8h-34.8v17.7h32.8v16.4h-32.8v19.7h36.1v17.1h-55.1v-87.3h53.8V268.8z"/>
	<path fill="#383838" d="M337.3,323.3h36.8v17.1H319v-87.9h19v70.9h-0.7V323.3z"/>
</g>
</svg>
