<?xml version="1.0" standalone="no"?>
<!DOCTYPE svg PUBLIC "-//W3C//DTD SVG 1.1//EN" "http://www.w3.org/Graphics/SVG/1.1/DTD/svg11.dtd" >
<svg xmlns="http://www.w3.org/2000/svg">
<metadata></metadata>
<defs>
<font id="futura_std_bookregular" horiz-adv-x="1261" >
<font-face units-per-em="2048" ascent="1690" descent="-358" />
<missing-glyph horiz-adv-x="630" />
<glyph unicode="&#xfb01;" horiz-adv-x="1062" d="M55 811v152h90v383q0 55 1.5 87.5t11.5 81t30 80.5q38 61 104 91t144 30q52 0 117 -20v-166q-68 22 -111 22q-20 0 -36 -2.5t-29 -9t-22.5 -13t-16.5 -20t-12 -23t-8.5 -30.5t-5 -33.5t-2.5 -40t-1 -43.5v-49v-325h244v-152h-244v-811h-164v811h-90zM678 1325q0 47 35 82 t82 35t81.5 -35t34.5 -82q0 -49 -34 -83t-82 -34t-82.5 34t-34.5 83zM713 0v963h164v-963h-164z" />
<glyph unicode="&#xfb02;" horiz-adv-x="1026" d="M55 811v152h90v383q0 55 1.5 87.5t11.5 81t30 80.5q38 61 104 91t144 30q52 0 117 -20v-166q-68 22 -111 22q-20 0 -36 -2.5t-29 -9t-22.5 -13t-16.5 -20t-12 -23t-8.5 -30.5t-5 -33.5t-2.5 -40t-1 -43.5v-49v-325h244v-152h-244v-811h-164v811h-90zM713 0v1690h164 v-1690h-164z" />
<glyph horiz-adv-x="2048" />
<glyph horiz-adv-x="2048" />
<glyph unicode="&#xd;" horiz-adv-x="2048" />
<glyph unicode=" "  horiz-adv-x="630" />
<glyph unicode="&#x09;" horiz-adv-x="630" />
<glyph unicode="&#xa0;" horiz-adv-x="630" />
<glyph unicode="!" horiz-adv-x="692" d="M231 90q0 46 34 79.5t81 33.5t81 -33.5t34 -79.5q0 -47 -34 -82t-81 -35t-81 35t-34 82zM262 313v1231h168v-1231h-168z" />
<glyph unicode="&#x22;" horiz-adv-x="935" d="M209 1544h192l-36 -672h-119zM535 1544h192l-37 -672h-119z" />
<glyph unicode="#" d="M90 457v159h236l59 351h-219v159h244l73 418h158l-74 -418h254l72 418h162l-72 -418h188v-159h-215l-59 -351h207v-159h-236l-82 -457h-155l80 457h-252l-86 -457h-154l80 457h-209zM485 616h252l60 351h-252z" />
<glyph unicode="$" d="M152 375l165 47q14 -109 92.5 -191.5t184.5 -89.5v625q-64 27 -110.5 50.5t-97 60t-82 76.5t-52.5 96t-21 122q0 155 103 260.5t260 127.5v210h135v-210q103 -13 190.5 -77t133.5 -157l-135 -88q-78 137 -189 158v-506q57 -24 99.5 -45.5t89 -50.5t79 -62t59.5 -74 t40.5 -92.5t13.5 -111.5q0 -170 -107.5 -299.5t-273.5 -163.5v-226h-135v213q-164 7 -288 121t-154 277zM403 1165q0 -76 53.5 -127.5t137.5 -89.5v449q-82 -15 -136.5 -81t-54.5 -151zM729 156q96 32 152.5 111.5t56.5 181.5q0 62 -32 113.5t-74.5 82.5t-102.5 60v-549z " />
<glyph unicode="%" horiz-adv-x="1632" d="M66 1233q0 142 101 240t243 98t243 -98t101 -240q0 -140 -101.5 -238t-242.5 -98t-242.5 97.5t-101.5 238.5zM197 1233q0 -84 63 -144.5t150 -60.5t150 60.5t63 144.5q0 86 -63 146.5t-150 60.5t-150 -60.5t-63 -146.5zM324 27l899 1544l82 -49l-893 -1549zM881 309 q0 142 101 240t243 98t243 -98t101 -240q0 -140 -101.5 -238t-242.5 -98t-242.5 97.5t-101.5 238.5zM1012 309q0 -84 63 -144.5t150 -60.5t150 60.5t63 144.5q0 86 -63 146.5t-150 60.5t-150 -60.5t-63 -146.5z" />
<glyph unicode="&#x26;" horiz-adv-x="1423" d="M80 395q0 54 12 103.5t28.5 87.5t49 78t58 66.5t73 62t75.5 55t83 55.5l18 12q-82 113 -108 162q-45 87 -45 166q0 145 96 236.5t242 91.5q134 0 230.5 -85.5t96.5 -217.5q0 -30 -5.5 -59t-12.5 -52t-23.5 -49t-27.5 -43t-35.5 -41.5t-37 -36.5t-43 -36.5t-42.5 -33.5 t-45 -34l325 -416l175 203l124 -103l-196 -229l262 -338h-217l-166 217q-125 -112 -244 -178t-250 -66q-118 0 -220.5 53.5t-166 151.5t-63.5 217zM248 408q0 -109 82 -194t190 -85q45 0 93 15t82 32t84.5 54t71.5 54.5t71 61.5l-344 442l-74 -49q-41 -28 -60.5 -42 t-56.5 -43t-56 -52t-41.5 -54.5t-32 -66.5t-9.5 -73zM487 1255q0 -22 4.5 -42.5t17.5 -44t20 -35t28 -40t25 -34.5l36 -51l15 10q9 7 43.5 33t46.5 36t37.5 34.5t35.5 43t19.5 46t9.5 57.5q0 69 -49.5 113t-118.5 44q-71 0 -120.5 -49t-49.5 -121z" />
<glyph unicode="'" horiz-adv-x="591" d="M201 1544h192l-37 -672h-118z" />
<glyph unicode="(" horiz-adv-x="587" d="M190 561q0 283 44 562t143 491l145 -70q-164 -433 -164 -983t164 -983l-145 -70q-99 212 -143 491t-44 562z" />
<glyph unicode=")" horiz-adv-x="587" d="M66 -422q163 430 163 983t-163 983l145 70q99 -211 142.5 -490t43.5 -563t-43.5 -563t-142.5 -490z" />
<glyph unicode="*" horiz-adv-x="1212" d="M223 1210l49 148l271 -101l-13 287h154l-12 -287l270 101l49 -148l-278 -77l178 -226l-125 -92l-160 242l-160 -242l-124 92l180 226z" />
<glyph unicode="+" d="M135 444v160h416v416h160v-416h415v-160h-415v-415h-160v415h-416z" />
<glyph unicode="," horiz-adv-x="630" d="M119 -307l190 532l152 -53l-232 -524z" />
<glyph unicode="-" horiz-adv-x="425" d="M4 418v151h420v-151h-420z" />
<glyph unicode="." horiz-adv-x="630" d="M201 90q0 46 33.5 79.5t80.5 33.5t81 -33.5t34 -79.5q0 -47 -34 -82t-81 -35t-80.5 34.5t-33.5 82.5z" />
<glyph unicode="/" horiz-adv-x="1167" d="M37 -260l958 1950l135 -62l-960 -1950z" />
<glyph unicode="0" d="M78 770q0 82 14 170t42 178.5t74 171t105.5 144t141.5 100.5t176 37t176 -37t141.5 -100.5t105.5 -144t74 -171t42 -178.5t14 -170q0 -115 -23.5 -229t-70.5 -216.5t-112 -181t-155 -124.5t-192 -46t-192 46t-155 124.5t-112 181t-70.5 216.5t-23.5 229zM250 762 q1 -71 13 -149.5t41 -165.5t70.5 -155.5t108.5 -113.5t148 -45t148 45t108.5 113.5t70.5 155.5t41 165.5t13 149.5q1 70 -10 151.5t-39 171t-70.5 161.5t-110.5 118.5t-151 46.5t-151 -46.5t-110.5 -118.5t-70.5 -161.5t-39 -171t-10 -151.5z" />
<glyph unicode="1" d="M324 1384l90 160h338v-1544h-172v1384h-256z" />
<glyph unicode="2" d="M84 0l723 854q104 126 104 258q0 128 -89.5 213.5t-217.5 85.5q-137 0 -222.5 -89.5t-88.5 -227.5h-172q5 204 139.5 340.5t337.5 136.5q129 0 239.5 -57.5t178 -163.5t67.5 -236q0 -193 -116 -326l-535 -628h651v-160h-999z" />
<glyph unicode="3" d="M117 401h168q6 -117 92 -192.5t205 -75.5q128 0 214.5 90t86.5 219q0 143 -91 218.5t-237 70.5v160q53 2 95.5 9.5t82.5 25t67 44.5t43.5 70.5t16.5 100.5q0 123 -74 196.5t-196 73.5q-112 0 -177.5 -67.5t-76.5 -180.5h-170q19 189 130 298.5t298 109.5 q189 0 313.5 -117t124.5 -305q0 -105 -53 -198.5t-145 -139.5q108 -49 164.5 -152t56.5 -227q0 -199 -139.5 -329t-340.5 -130q-191 0 -323 119t-135 309z" />
<glyph unicode="4" d="M12 250l959 1380h4v-1220h190v-160h-190v-250h-172v250h-791zM313 410h490v698h-4z" />
<glyph unicode="5" d="M43 250l137 98q54 -97 144.5 -156t197.5 -59q169 0 279 112.5t110 282.5q0 163 -111 269t-274 106q-142 0 -293 -98l224 739h614v-160h-493l-101 -329l92 8q149 0 267.5 -72.5t182.5 -195t64 -271.5q0 -156 -76 -283t-205.5 -197.5t-285.5 -70.5q-151 0 -273.5 72.5 t-199.5 204.5z" />
<glyph unicode="6" d="M90 502q0 173 141 370l512 699l129 -96l-356 -480l4 -4q24 10 66 17q34 6 69 6q138 0 253 -69t181 -186t66 -255q0 -145 -72 -267.5t-194.5 -193t-265.5 -70.5q-144 0 -267 71t-194.5 193t-71.5 265zM262 498q0 -151 105.5 -258t255.5 -107t255 107t105 258 q0 150 -105 253t-255 103q-151 0 -256 -103t-105 -253z" />
<glyph unicode="7" d="M72 53l876 1331h-844v160h1139l-1036 -1571z" />
<glyph unicode="8" d="M160 432q0 121 60 221.5t167 149.5q-88 50 -138 142.5t-50 195.5q0 185 124.5 307.5t307.5 122.5t307.5 -122.5t124.5 -307.5q0 -103 -50.5 -195.5t-138.5 -142.5q107 -49 167.5 -149.5t60.5 -221.5q0 -198 -135 -328.5t-336 -130.5t-336 130.5t-135 328.5zM332 430 q0 -124 87 -210.5t212 -86.5t212 86.5t87 210.5t-87 210.5t-212 86.5t-212 -86.5t-87 -210.5zM362 1145q0 -112 79 -191.5t190 -79.5q110 0 189 79.5t79 191.5q0 110 -79 188t-189 78q-111 0 -190 -78t-79 -188z" />
<glyph unicode="9" d="M92 1044q0 144 72 265.5t195 191.5t266 70t265.5 -70t194.5 -191.5t72 -265.5q0 -172 -143 -370l-512 -701l-129 88l356 490l-4 4q-68 -20 -133 -20q-139 0 -254 68.5t-180.5 185t-65.5 255.5zM264 1051q0 -150 105 -253.5t256 -103.5q150 0 255 103.5t105 253.5 q0 149 -105.5 254.5t-254.5 105.5q-151 0 -256 -105.5t-105 -254.5z" />
<glyph unicode=":" horiz-adv-x="630" d="M201 90q0 46 33.5 79.5t80.5 33.5t81 -33.5t34 -79.5q0 -47 -34 -82t-81 -35t-80.5 34.5t-33.5 82.5zM201 877q0 46 33.5 79t80.5 33t81 -33t34 -79q0 -47 -34 -82t-81 -35t-80.5 34.5t-33.5 82.5z" />
<glyph unicode=";" horiz-adv-x="630" d="M123 -307l190 532l152 -53l-232 -524zM252 877q0 46 34 79t81 33t80.5 -33t33.5 -79q0 -48 -33.5 -82.5t-80.5 -34.5t-81 35t-34 82z" />
<glyph unicode="&#x3c;" d="M135 453v143l991 424v-174l-753 -322l753 -321v-174z" />
<glyph unicode="=" d="M135 285v159h991v-159h-991zM135 604v160h991v-160h-991z" />
<glyph unicode="&#x3e;" d="M135 29v174l754 321l-754 322v174l991 -424v-143z" />
<glyph unicode="?" horiz-adv-x="999" d="M127 1221q0 156 110 253t267 97t262.5 -106t105.5 -263q0 -78 -28 -151.5t-82 -122.5q-13 -11 -29.5 -22t-29.5 -19t-36.5 -17.5t-33.5 -14t-38.5 -14t-34 -11t-38 -11.5t-33.5 -10q-74 -21 -115.5 -60t-41.5 -110q0 -69 49.5 -116.5t118.5 -47.5q81 0 123.5 57t42.5 140 h165q5 -149 -90 -252t-243 -103q-142 0 -238 96.5t-96 237.5q0 67 21 119t61.5 88.5t87 61t110.5 45.5q10 3 29 9q35 10 52 16t46 17.5t44.5 22t35.5 27.5t30 36.5t17 46.5t7 60q0 94 -59.5 153.5t-151.5 59.5q-87 0 -144 -58.5t-57 -144.5q0 -48 12 -98h-170zM381 90 q0 46 34 79.5t81 33.5t80.5 -33.5t33.5 -79.5q0 -48 -33.5 -82.5t-80.5 -34.5t-81 35t-34 82z" />
<glyph unicode="@" horiz-adv-x="1638" d="M74 772q0 168 61.5 316.5t166 254t249 167t305.5 61.5q285 0 481 -176q230 -200 230 -469q0 -127 -33 -239t-94 -191q-70 -92 -154 -136t-162 -41q-43 2 -72 34.5t-38 90.5q-125 -125 -279 -125q-137 0 -240.5 110t-103.5 265q0 124 50.5 234t148 180t219.5 70 q81 0 146.5 -33.5t125.5 -110.5l29 125h145l-102 -522q-20 -98 -16 -130q8 -43 45 -44q47 0 100.5 56t92.5 148.5t44 186.5q10 175 -64 306t-205 197t-300 66q-180 0 -324 -84.5t-224.5 -233.5t-80.5 -333q0 -192 88.5 -341.5t239.5 -229.5t336 -80q258 0 391 94l143 -104 q-127 -66 -254 -102t-297 -36q-163 0 -309.5 60.5t-253 165.5t-169 254t-62.5 319zM535 709q0 -108 58.5 -177t162.5 -69q53 0 96.5 17.5t73.5 46t52 68t34 80.5t18 87q15 122 -44 199t-165 77q-80 0 -147 -49.5t-103 -124.5t-36 -155z" />
<glyph unicode="A" horiz-adv-x="1431" d="M12 0l713 1618l694 -1618h-190l-182 438h-660l-186 -438h-189zM457 598h522l-258 619z" />
<glyph unicode="B" horiz-adv-x="1163" d="M156 0v1544h254q110 0 200 -21.5t162.5 -68.5t113 -130.5t40.5 -197.5q0 -199 -152 -301q135 -33 214 -143.5t79 -251.5q0 -90 -28.5 -162.5t-78.5 -122t-120 -82.5t-151 -48t-175 -15h-358zM328 160h172q63 0 115.5 6.5t106 25t90.5 49t60 82t23 119.5q0 58 -17.5 103.5 t-49.5 74.5t-70.5 49t-89 30t-95 14t-96.5 4h-149v-557zM328 864h65q67 0 113.5 4t97 19.5t80.5 42.5t50 76.5t20 119.5q0 68 -18 116t-46.5 75.5t-78 42.5t-97.5 19.5t-119 4.5h-67v-520z" />
<glyph unicode="C" horiz-adv-x="1468" d="M68 766q0 217 108 402.5t293.5 294t402.5 108.5q257 0 461 -152v-213q-93 97 -216 151t-255 54q-168 0 -312 -88.5t-227 -235.5t-83 -315t83.5 -315t228.5 -235.5t314 -88.5q128 0 250 55t217 150v-213q-211 -152 -461 -152q-161 0 -309 63t-256.5 169t-173.5 253 t-65 308z" />
<glyph unicode="D" horiz-adv-x="1388" d="M156 0v1544h290q193 0 334.5 -38.5t268.5 -147.5q256 -221 256 -588q0 -350 -252 -575q-129 -115 -270 -155t-341 -40h-286zM328 160h125q158 0 273.5 33t213.5 126q94 88 143.5 205.5t49.5 247.5q0 134 -51.5 255.5t-149.5 207.5q-98 87 -212 118t-267 31h-125v-1224z " />
<glyph unicode="E" horiz-adv-x="1093" d="M156 0v1544h800v-160h-628v-458h610v-160h-610v-606h628v-160h-800z" />
<glyph unicode="F" horiz-adv-x="978" d="M156 0v1544h702v-160h-530v-458h514v-160h-514v-766h-172z" />
<glyph unicode="G" horiz-adv-x="1679" d="M66 768q0 163 63.5 311.5t171.5 256t257 171.5t312 64q397 0 654 -334l-125 -117q-206 291 -531 291q-129 0 -246.5 -52t-201 -139.5t-133 -206t-49.5 -247.5q0 -123 46.5 -235.5t133.5 -200.5q88 -88 204.5 -142.5t233.5 -54.5q101 0 199.5 35.5t176.5 97.5t126.5 154 t48.5 196h-459v160h643v-30q0 -157 -29 -274q-32 -127 -130 -241q-105 -122 -257 -190t-315 -68q-128 0 -249 40.5t-218.5 114.5t-171.5 172t-114.5 219t-40.5 249z" />
<glyph unicode="H" horiz-adv-x="1462" d="M164 0v1544h172v-626h790v626h172v-1544h-172v758h-790v-758h-172z" />
<glyph unicode="I" horiz-adv-x="489" d="M160 0v1544h172v-1544h-172z" />
<glyph unicode="J" horiz-adv-x="643" d="M-135 -45l96 133q49 -45 88 -66.5t94 -21.5q35 0 62 12.5t44.5 29.5t30 47.5t18.5 54t9 62.5t3.5 59.5t0.5 56.5v1222h172v-1222q0 -64 -1.5 -96.5t-7.5 -85.5t-23 -95t-45 -78q-46 -62 -116.5 -94.5t-150.5 -32.5q-138 0 -274 115z" />
<glyph unicode="K" horiz-adv-x="1251" d="M156 0v1544h172v-661l657 661h232l-725 -719l749 -825h-237l-633 709l-43 -43v-666h-172z" />
<glyph unicode="L" horiz-adv-x="768" d="M156 0v1544h172v-1384h426v-160h-598z" />
<glyph unicode="M" horiz-adv-x="1835" d="M43 0l313 1632l562 -1296l563 1296l313 -1632h-176l-199 1044h-4l-497 -1107l-496 1107h-4l-199 -1044h-176z" />
<glyph unicode="N" horiz-adv-x="1708" d="M166 0v1610l1204 -1262v1196h172v-1614l-1204 1260v-1190h-172z" />
<glyph unicode="O" horiz-adv-x="1765" d="M78 770q0 163 64.5 311.5t172.5 255.5t257 170.5t311 63.5t311 -63.5t257 -170.5t172.5 -255.5t64.5 -311.5t-64.5 -311t-172.5 -254.5t-257 -169t-311 -62.5t-311 62.5t-257 169t-172.5 254.5t-64.5 311zM250 772q0 -128 50 -246t134.5 -204t202 -137.5t246.5 -51.5 t246.5 51.5t202 137.5t134.5 204t50 246q0 129 -49.5 247t-134 204t-202 137t-247.5 51t-247.5 -51t-202 -137t-134 -204t-49.5 -247z" />
<glyph unicode="P" horiz-adv-x="1030" d="M156 0v1544h254q83 0 136.5 -3.5t123.5 -22.5t123 -56q84 -59 129 -152.5t45 -199.5q0 -96 -38.5 -184.5t-109.5 -147.5q-123 -102 -366 -102h-125v-676h-172zM328 836h114q353 0 353 278q0 53 -12.5 94.5t-32 69.5t-51.5 48t-64 31t-76.5 17.5t-81 8t-86.5 1.5h-63v-548 z" />
<glyph unicode="Q" horiz-adv-x="1765" d="M78 770q0 163 64.5 311.5t172.5 255.5t257 170.5t311 63.5q219 0 404.5 -108.5t293 -293.5t107.5 -403q0 -304 -224 -545l232 -235h-219l-129 139q-94 -71 -220 -111.5t-245 -40.5q-162 0 -311 62.5t-257 169t-172.5 254.5t-64.5 311zM250 772q0 -128 50 -246t134.5 -204 t202 -137.5t246.5 -51.5q87 0 180.5 31t163.5 84l-373 375h225l267 -279q170 179 170 428q0 174 -83.5 320.5t-229.5 232.5t-320 86q-130 0 -247.5 -51t-202 -137t-134 -204t-49.5 -247z" />
<glyph unicode="R" horiz-adv-x="1110" d="M156 0v1544h223q94 0 172 -10.5t153 -39.5t126 -75.5t82.5 -123t31.5 -177.5q0 -179 -104.5 -295t-282.5 -131l492 -692h-211l-467 678h-43v-678h-172zM328 829h53q65 0 116 5.5t105 23t89.5 47t58 81t22.5 120.5q0 62 -14 108.5t-42.5 76.5t-61.5 49t-82 28.5 t-91.5 12.5t-101.5 3h-51v-555z" />
<glyph unicode="S" horiz-adv-x="1144" d="M82 373l168 47q18 -122 103 -204.5t206 -82.5q128 0 223 86.5t95 214.5q0 43 -8.5 78t-34 65.5t-40.5 48.5t-61 44t-60 33t-71 33q-7 3 -10 5l-94 41q-62 28 -105 51.5t-90 59.5t-75.5 74t-47 92.5t-18.5 118.5q0 116 60.5 207t158.5 138.5t213 47.5q129 0 233 -63 t166 -177l-137 -88q-49 84 -110.5 126t-155.5 42q-105 0 -180.5 -68t-75.5 -172q0 -38 16.5 -72t37 -56t59.5 -46.5t61.5 -35.5t66.5 -31l103 -45q69 -30 117 -55.5t99.5 -64t82.5 -81t51.5 -102t20.5 -131.5q0 -201 -142 -339.5t-344 -138.5q-185 0 -314.5 109t-166.5 291z " />
<glyph unicode="T" horiz-adv-x="962" d="M20 1384v160h922v-160h-377v-1384h-172v1384h-373z" />
<glyph unicode="U" horiz-adv-x="1402" d="M152 578v966h172v-919v-21q0 -56 1 -86.5t6.5 -78.5t20.5 -86.5t39 -71.5q49 -68 136 -108t175 -40q85 0 168 37t136 100q12 14 22 31t17.5 31t13 35.5t9.5 34t6.5 38t4 36t2 39t0.5 36v38.5v36v919h172v-966q0 -148 -25.5 -244.5t-109.5 -183.5q-79 -85 -188 -131 t-228 -46q-110 0 -216 41.5t-183 116.5q-93 89 -122 191.5t-29 255.5z" />
<glyph unicode="V" horiz-adv-x="1277" d="M12 1544h187l440 -1177l440 1177h187l-627 -1636z" />
<glyph unicode="W" horiz-adv-x="2234" d="M27 1544h186l405 -1157l500 1237l500 -1237l405 1157h187l-592 -1624l-500 1243l-500 -1243z" />
<glyph unicode="X" horiz-adv-x="1155" d="M27 0l456 799l-417 745h196l316 -581l315 581h197l-418 -745l456 -799h-196l-354 635l-355 -635h-196z" />
<glyph unicode="Y" horiz-adv-x="1214" d="M16 1544h199l393 -688l393 688h199l-506 -880v-664h-172v664z" />
<glyph unicode="Z" horiz-adv-x="1200" d="M29 0l841 1384h-735v160h1022l-844 -1384h822v-160h-1106z" />
<glyph unicode="[" horiz-adv-x="645" d="M213 -492v2106h389v-152h-221v-1802h221v-152h-389z" />
<glyph unicode="\" horiz-adv-x="1167" d="M37 1628l135 62l958 -1690l-133 -61z" />
<glyph unicode="]" horiz-adv-x="645" d="M43 -340h221v1802h-221v152h389v-2106h-389v152z" />
<glyph unicode="^" d="M135 659l422 885h148l421 -885h-182l-313 672l-318 -672h-178z" />
<glyph unicode="_" horiz-adv-x="1024" d="M0 -154h1024v-102h-1024v102z" />
<glyph unicode="`" horiz-adv-x="733" d="M160 1446l172 78l243 -336l-102 -58z" />
<glyph unicode="a" horiz-adv-x="1181" d="M74 479q0 138 54.5 253t161.5 186t247 71q97 0 182.5 -43.5t146.5 -120.5h4v138h164v-963h-164v133h-4q-127 -160 -331 -160q-137 0 -244 71.5t-162 186t-55 248.5zM242 492q0 -150 84.5 -258.5t230.5 -108.5q152 0 237 105t85 259q0 149 -88 249t-236 100 q-138 0 -225.5 -103t-87.5 -243z" />
<glyph unicode="b" horiz-adv-x="1181" d="M147 0v1690h164v-865h4q59 77 145.5 120.5t184.5 43.5q139 0 246 -70.5t162 -185.5t55 -252q0 -135 -55 -250t-162 -186.5t-244 -71.5q-101 0 -187.5 41.5t-144.5 118.5h-4v-133h-164zM303 492q0 -150 84.5 -258.5t230.5 -108.5q152 0 237 105t85 259q0 149 -88 249 t-236 100q-138 0 -225.5 -103t-87.5 -243z" />
<glyph unicode="c" horiz-adv-x="974" d="M59 481q0 141 69 258t187 183.5t258 66.5q162 0 297 -96v-217h-4q-128 162 -299 162q-147 0 -243.5 -104.5t-96.5 -252.5q0 -147 92.5 -251.5t239.5 -104.5q185 0 313 166h5v-219q-148 -99 -306 -99q-219 0 -365.5 145t-146.5 363z" />
<glyph unicode="d" horiz-adv-x="1181" d="M74 479q0 138 54.5 253t161.5 186t247 71q96 0 183 -43.5t146 -120.5h4v865h164v-1690h-164v133h-4q-60 -77 -146 -118.5t-185 -41.5q-137 0 -244 71.5t-162 186t-55 248.5zM242 492q0 -150 84.5 -258.5t230.5 -108.5q152 0 237 105t85 259q0 149 -88 249t-236 100 q-138 0 -225.5 -103t-87.5 -243z" />
<glyph unicode="e" horiz-adv-x="1062" d="M70 469q0 145 53 261.5t160.5 187.5t253.5 71q113 0 203.5 -44.5t147 -119.5t84.5 -173q23 -80 22 -168q0 -19 -1 -38h-755q2 -136 90 -228.5t225 -92.5q184 0 293 199l139 -80q-70 -130 -184 -200.5t-260 -70.5q-140 0 -248.5 66.5t-165.5 179t-57 250.5zM246 586h575 q-18 106 -97.5 179t-184.5 73q-106 0 -192 -74t-101 -178z" />
<glyph unicode="f" horiz-adv-x="561" d="M80 811v152h90v383q0 55 1.5 87.5t11.5 81t30 80.5q38 61 104 91t144 30q52 0 117 -20v-166q-68 22 -111 22q-20 0 -36 -2.5t-29 -9t-22.5 -13t-16.5 -20t-12 -23t-8.5 -30.5t-5 -33.5t-2.5 -40t-1 -43.5v-49v-325h244v-152h-244v-811h-164v811h-90z" />
<glyph unicode="g" horiz-adv-x="1187" d="M63 477q0 101 33 194t92 163.5t147.5 112.5t192.5 42q99 0 184 -43t144 -121h4v138h164v-916q0 -76 -2 -115.5t-10 -98.5t-29.5 -106.5t-56.5 -93.5q-66 -84 -164 -127t-209 -43q-204 0 -336.5 121t-136.5 322h164q1 -132 87 -211.5t220 -79.5q74 0 129.5 21.5t89 57.5 t54.5 89t28.5 109t7.5 126v115h-4q-58 -75 -147.5 -117.5t-186.5 -42.5q-136 0 -242.5 70.5t-161.5 184.5t-55 249zM231 492q0 -96 35.5 -178.5t109 -135.5t171.5 -53q152 0 236.5 105t84.5 259q0 150 -87.5 249.5t-235.5 99.5q-138 0 -226 -103t-88 -243z" />
<glyph unicode="h" horiz-adv-x="1081" d="M156 0v1690h163v-840l5 -4q106 143 274 143q78 0 136.5 -22.5t94.5 -59.5t58 -92t30.5 -113.5t8.5 -130.5v-571h-164v543q0 46 -2 77t-8.5 68.5t-20 61.5t-35 45.5t-56.5 32t-81 10.5q-54 0 -95.5 -15.5t-67 -46t-42 -63.5t-23.5 -81.5t-9.5 -86t-2.5 -88.5v-457h-163z " />
<glyph unicode="i" horiz-adv-x="536" d="M152 1325q0 47 34.5 82t81.5 35t82 -35t35 -82q0 -49 -34.5 -83t-82.5 -34t-82 34t-34 83zM186 0v963h164v-963h-164z" />
<glyph unicode="j" horiz-adv-x="536" d="M152 1325q0 47 34.5 82t81.5 35t82 -35t35 -82q0 -49 -34.5 -83t-82.5 -34t-82 34t-34 83zM186 -541v1504h164v-1504h-164z" />
<glyph unicode="k" horiz-adv-x="962" d="M147 0v1690h164v-1084l351 357h219l-412 -410l489 -553h-217l-387 438l-43 -43v-395h-164z" />
<glyph unicode="l" horiz-adv-x="464" d="M152 0v1690h163v-1690h-163z" />
<glyph unicode="m" horiz-adv-x="1572" d="M156 0v963h163v-105h5q39 61 99 96t132 35q85 0 156.5 -42.5t109.5 -117.5q41 77 119.5 118.5t169.5 41.5q71 0 126 -23t88.5 -60t55 -90.5t29.5 -109t8 -120.5v-586h-164v559q0 47 -2 78t-12 73t-27.5 67t-52 43t-82.5 18q-54 0 -93.5 -21t-61.5 -52t-34.5 -77.5 t-16 -86.5t-3.5 -91v-510h-163v547q0 43 -2.5 77t-13 76t-28 70.5t-51 48t-78.5 19.5q-55 0 -96 -22.5t-63 -55t-34.5 -81t-16 -89.5t-3.5 -92v-498h-163z" />
<glyph unicode="n" horiz-adv-x="1081" d="M156 0v963h163v-117h5q106 143 274 143q78 0 136.5 -22.5t94.5 -59.5t58 -92t30.5 -113.5t8.5 -130.5v-571h-164v543q0 46 -2 77t-8.5 68.5t-20 61.5t-35 45.5t-56.5 32t-81 10.5q-54 0 -95.5 -15.5t-67 -46t-42 -63.5t-23.5 -81.5t-9.5 -86t-2.5 -88.5v-457h-163z" />
<glyph unicode="o" horiz-adv-x="1150" d="M70 479q0 139 66.5 256.5t183 185.5t255.5 68t255.5 -68t183.5 -185.5t67 -256.5t-67.5 -255.5t-184 -183.5t-254.5 -67t-254.5 67t-183.5 183.5t-67 255.5zM233 481q0 -150 96 -253t246 -103t246.5 103t96.5 253q0 149 -96.5 253t-246.5 104q-149 0 -245.5 -104 t-96.5 -253z" />
<glyph unicode="p" horiz-adv-x="1181" d="M147 -541v1504h164v-138h4q60 79 146 121.5t186 42.5q137 0 244 -72.5t162 -188t55 -249.5q0 -138 -54.5 -252.5t-161.5 -184t-247 -69.5q-99 0 -185.5 42t-144.5 120h-4v-676h-164zM303 492q0 -150 84.5 -258.5t230.5 -108.5q152 0 237 105t85 259q0 149 -88 249 t-236 100q-138 0 -225.5 -103t-87.5 -243z" />
<glyph unicode="q" horiz-adv-x="1181" d="M74 477q0 101 32.5 193t90.5 163t146 113.5t192 42.5q99 0 185 -42.5t146 -121.5h4v138h164v-1504h-164v676h-4q-58 -77 -144.5 -119.5t-184.5 -42.5q-140 0 -247 69.5t-161.5 183.5t-54.5 251zM242 492q0 -150 84.5 -258.5t230.5 -108.5q152 0 237 105t85 259 q0 149 -88 249t-236 100q-138 0 -225.5 -103t-87.5 -243z" />
<glyph unicode="r" horiz-adv-x="686" d="M147 0v963h164v-105h4q34 45 58 69.5t64.5 43t90.5 18.5q70 0 148 -45l-78 -149q-2 2 -15 11t-16 11t-13.5 8t-17 7.5t-16.5 3.5t-20 2q-43 0 -76 -17t-53 -48.5t-33 -65t-18.5 -79t-7 -76.5t-1.5 -71v-481h-164z" />
<glyph unicode="s" horiz-adv-x="817" d="M76 217l145 62q35 -77 78 -115.5t119 -38.5q67 0 111 41t44 106q0 43 -24 76t-62 54t-84.5 39.5t-93 41t-84.5 51t-62 75.5t-24 108q0 119 83.5 195.5t203.5 76.5q81 0 152 -50.5t104 -127.5l-137 -72q-19 41 -54 70t-77 29q-45 0 -82 -31.5t-37 -75.5q0 -16 5.5 -30.5 t13 -26t23 -23.5t27 -19.5t35 -18.5t36.5 -16.5t41.5 -17t41.5 -16.5q49 -20 83.5 -41t69 -53t52.5 -78t18 -104q0 -135 -95 -224.5t-230 -89.5q-121 0 -211.5 65t-128.5 179z" />
<glyph unicode="t" horiz-adv-x="491" d="M63 811v152h101v346h164v-346h172v-152h-172v-811h-164v811h-101z" />
<glyph unicode="u" horiz-adv-x="1048" d="M143 408v555h164v-537q0 -56 3.5 -94.5t16 -80.5t35 -67.5t63.5 -42t99 -16.5t99 16.5t63.5 42t35 67.5t16 80.5t3.5 94.5v537h164v-555q0 -435 -381 -435t-381 435z" />
<glyph unicode="v" horiz-adv-x="948" d="M2 963h186l287 -648l287 648h184l-471 -1026z" />
<glyph unicode="w" horiz-adv-x="1556" d="M6 963h187l284 -652l299 725l301 -725l287 652h186l-477 -1031l-297 717l-297 -717z" />
<glyph unicode="x" horiz-adv-x="1019" d="M2 0l410 512l-351 451h201l252 -328l252 328h205l-353 -451l400 -512h-199l-305 391l-307 -391h-205z" />
<glyph unicode="y" horiz-adv-x="1019" d="M-4 963h190l340 -691l312 691h186l-711 -1504h-186l311 631z" />
<glyph unicode="z" horiz-adv-x="1062" d="M20 0l695 811h-565v152h894l-692 -811h664v-152h-996z" />
<glyph unicode="{" horiz-adv-x="684" d="M104 496v131q51 16 82.5 43t47 71.5t20 91t4.5 121.5v383q0 114 60.5 195.5t113.5 81.5h150v-152h-82q-22 0 -36 -8t-22 -18.5t-11.5 -34.5t-4 -41t-0.5 -53v-387q0 -68 -14 -128t-33 -98t-43 -68.5t-39.5 -44t-26.5 -20.5q12 -7 27 -20t39 -44t43 -69t33 -98.5 t14 -128.5v-385q0 -30 0.5 -44.5t2.5 -37t6.5 -32.5t12.5 -21.5t21 -16t31 -4.5h82v-152h-150q-53 0 -113.5 81.5t-60.5 195.5v381q0 76 -4.5 123t-20 92t-47 72t-82.5 43z" />
<glyph unicode="|" horiz-adv-x="1167" d="M504 -438v2048h160v-2048h-160z" />
<glyph unicode="}" horiz-adv-x="684" d="M102 -340h82q18 0 31 4.5t21 16t12.5 21.5t6.5 32.5t2.5 37t0.5 44.5v385q0 68 14 128.5t33 98.5t43 69t39 44t27 20q-11 7 -26.5 20.5t-39.5 44t-43 68.5t-33 98t-14 128v387q0 36 -0.5 53t-4 41t-11.5 34.5t-22 18.5t-36 8h-82v152h150q53 0 113.5 -81.5t60.5 -195.5 v-383q0 -75 4.5 -121.5t20 -91t47 -71.5t82.5 -43v-131q-51 -16 -82.5 -43t-47 -72t-20 -92t-4.5 -123v-381q0 -114 -60.5 -195.5t-113.5 -81.5h-150v152z" />
<glyph unicode="~" d="M135 410q49 136 120.5 218.5t164.5 82.5q81 0 223 -93q17 -11 51.5 -35t55 -37.5t47 -25.5t45.5 -12q41 0 80 56t65 143l139 -58q-45 -134 -117 -217.5t-167 -83.5q-75 0 -209 90q-13 9 -42 28.5t-41.5 27.5t-35 21t-35.5 19t-29.5 10.5t-29.5 4.5q-41 0 -78.5 -54.5 t-65.5 -142.5z" />
<glyph unicode="&#xa1;" horiz-adv-x="692" d="M231 877q0 46 34 79t81 33t81 -33t34 -79q0 -47 -34 -82t-81 -35t-81 35t-34 82zM262 -582v1231h168v-1231h-168z" />
<glyph unicode="&#xa2;" d="M195 778q0 125 54 236t153 185t223 89v217h135v-213q133 -12 246 -90v-217h-5q-106 137 -241 156v-705q73 10 136.5 55t109.5 109h4v-219q-133 -88 -250 -96v-230h-135v232q-118 13 -217.5 84.5t-156 179.5t-56.5 227zM362 791q0 -126 72 -227.5t191 -125.5v699 q-116 -23 -189.5 -124t-73.5 -222z" />
<glyph unicode="&#xa3;" d="M76 59q54 87 130.5 142.5t168.5 56.5q65 92 65 191q0 54 -14 100h-260v131h205l-39 76q-8 16 -31 60t-32 62.5t-25.5 57t-23.5 64.5t-13 62t-6 71q0 123 62 224t166.5 157.5t227.5 56.5q198 0 322.5 -132t126.5 -331l-168 -45q-1 69 -16 128.5t-46 109t-86 78t-128 28.5 q-118 0 -201.5 -80t-83.5 -199q0 -72 30 -147.5t81.5 -166t70.5 -134.5h291v-131h-246q14 -54 14 -92q0 -107 -67 -221l10 -5q15 -5 66.5 -23.5t86.5 -30.5t77.5 -23t66.5 -11q33 0 61.5 13t51.5 38t38.5 47.5t34.5 55.5l140 -84q-46 -103 -129 -170.5t-187 -67.5 q-84 0 -250 60q-8 3 -34 12.5t-35.5 12.5t-31.5 10t-33.5 10t-29.5 7t-32.5 5.5t-28.5 1.5q-111 0 -184 -125z" />
<glyph unicode="&#xa4;" d="M109 614q0 87 25 161t83 163l-82 82l74 74l86 -86q86 62 163 90t173 28t173 -28t163 -90l86 86l73 -74l-82 -82q58 -89 83.5 -163.5t25.5 -160.5t-25.5 -159.5t-83.5 -163.5l82 -82l-73 -74l-86 86q-86 -62 -163.5 -90.5t-172.5 -28.5t-172.5 28.5t-163.5 90.5l-86 -86 l-74 74l82 82q-58 89 -83 163t-25 160zM240 614q3 -155 117 -268t274 -113t274 113t117 268q3 162 -110 270t-281 111q-168 -3 -281 -111t-110 -270z" />
<glyph unicode="&#xa5;" d="M39 1544h199l393 -684l393 684h199l-318 -553h297v-131h-373l-112 -205h485v-131h-485v-524h-172v524h-486v131h486l-113 205h-373v131h297z" />
<glyph unicode="&#xa6;" horiz-adv-x="1167" d="M504 -182v512h160v-512h-160zM504 842v512h160v-512h-160z" />
<glyph unicode="&#xa7;" horiz-adv-x="1212" d="M209 596q0 114 56 203t159 131q-87 43 -133.5 117t-46.5 172q0 156 114 254t273 98q83 0 165 -36.5t128 -100.5q69 -98 73 -265h-163q-13 244 -205 244q-94 0 -155.5 -56t-61.5 -151q0 -24 5 -45t11 -37t20 -32t24.5 -27t32 -23.5t34.5 -19.5t40.5 -17.5t40.5 -15.5 t44.5 -16t44.5 -15q52 -19 88 -35.5t78.5 -47t68 -66.5t43 -92t17.5 -125q0 -216 -216 -328q181 -93 181 -299q0 -162 -107.5 -257t-273.5 -95q-189 0 -277 102t-96 293h166q0 -109 51 -173t158 -64q99 0 155 52.5t56 151.5q0 32 -7.5 59t-17.5 46.5t-31.5 38t-36 29.5 t-46.5 25t-47 20t-52 20q-9 4 -55.5 22.5t-66 27.5t-52.5 27t-55 36q-125 99 -125 270zM381 598q0 -94 65.5 -160.5t159.5 -66.5t161 66.5t67 160.5q0 93 -67 159t-161 66t-159.5 -65.5t-65.5 -159.5z" />
<glyph unicode="&#xa8;" horiz-adv-x="956" d="M166 1333q0 46 32 78.5t78 32.5t78.5 -32.5t32.5 -78.5t-32.5 -78t-78.5 -32t-78 32t-32 78zM569 1333q0 46 32.5 78.5t78.5 32.5t78.5 -32.5t32.5 -78.5t-32.5 -78t-78.5 -32t-78.5 32t-32.5 78z" />
<glyph unicode="&#xa9;" horiz-adv-x="1638" d="M16 772q0 219 106.5 402.5t291 290t405.5 106.5t405.5 -106.5t291 -290t106.5 -402.5t-106.5 -402.5t-291 -290t-405.5 -106.5t-405.5 106.5t-291 290t-106.5 402.5zM139 772q0 -185 93 -341t249.5 -245.5t337.5 -89.5t337.5 89.5t249.5 245.5t93 341t-93 341 t-249.5 245.5t-337.5 89.5t-337.5 -89.5t-249.5 -245.5t-93 -341zM406 778q0 202 120.5 331.5t323.5 129.5q143 0 246.5 -81t130.5 -222h-125q-19 85 -86 132.5t-168 47.5q-80 0 -143 -29.5t-100.5 -78t-57 -106.5t-19.5 -120q0 -146 87.5 -243t236.5 -97q100 0 164 49 t86 138h125q-18 -141 -125.5 -225.5t-249.5 -84.5q-198 0 -322 132t-124 327z" />
<glyph unicode="&#xaa;" horiz-adv-x="708" d="M43 1264q0 129 82 218t219 89q63 0 118.5 -26t94.5 -72h4v81h107v-577h-107v80h-4q-81 -96 -215 -96t-216.5 89t-82.5 214zM150 1272q0 -90 55.5 -155.5t150.5 -65.5q98 0 153.5 63t55.5 156q0 91 -56.5 151t-152.5 60q-91 0 -148.5 -62t-57.5 -147z" />
<glyph unicode="&#xab;" horiz-adv-x="1024" d="M84 492l344 436l109 -86l-277 -350l277 -340l-109 -84zM432 492l344 436l109 -86l-277 -350l277 -340l-109 -84z" />
<glyph unicode="&#xac;" d="M135 604v160h991v-553h-159v393h-832z" />
<glyph unicode="&#xad;" horiz-adv-x="425" d="M4 418v151h420v-151h-420z" />
<glyph unicode="&#xae;" horiz-adv-x="1638" d="M16 772q0 219 106.5 402.5t291 290t405.5 106.5t405.5 -106.5t291 -290t106.5 -402.5t-106.5 -402.5t-291 -290t-405.5 -106.5t-405.5 106.5t-291 290t-106.5 402.5zM139 772q0 -185 93 -341t249.5 -245.5t337.5 -89.5t337.5 89.5t249.5 245.5t93 341t-93 341 t-249.5 245.5t-337.5 89.5t-337.5 -89.5t-249.5 -245.5t-93 -341zM520 340v874h381q311 0 311 -231q0 -122 -75 -179.5t-201 -60.5l264 -403h-147l-262 403h-148v-403h-123zM643 866h148q11 0 43.5 -0.5t50 -0.5t48.5 2t49 6.5t41.5 13t36 21t21.5 32.5t9 45q0 107 -213 107 h-234v-226z" />
<glyph unicode="&#xaf;" horiz-adv-x="1021" d="M162 1257v140h700v-140h-700z" />
<glyph unicode="&#xb0;" horiz-adv-x="819" d="M102 1264q-1 126 89.5 216.5t218.5 90.5q126 0 216.5 -90.5t90.5 -216.5q0 -127 -90.5 -217.5t-216.5 -90.5q-128 0 -218 90t-90 218zM201 1264q0 -88 60.5 -148.5t148.5 -60.5q86 0 147 60.5t61 148.5q0 86 -61 147.5t-149 61.5q-86 0 -147 -61.5t-60 -147.5z" />
<glyph unicode="&#xb1;" d="M135 0v160h991v-160h-991zM135 547v160h416v313h160v-313h415v-160h-415v-314h-160v314h-416z" />
<glyph unicode="&#xb2;" horiz-adv-x="755" d="M53 629l469 512q58 64 58 155q0 76 -53 122t-136 46q-90 0 -140 -48.5t-50 -131.5h-123q3 122 90.5 204.5t218.5 82.5q135 0 225 -77.5t90 -197.5q0 -123 -65 -194l-338 -367h403v-106h-649z" />
<glyph unicode="&#xb3;" horiz-adv-x="755" d="M74 868h123q0 -69 50.5 -109t127.5 -40q81 0 132.5 49t51.5 125q0 80 -55 126.5t-146 43.5v106q82 0 134.5 38.5t52.5 105.5q0 69 -50 110t-114 41q-67 0 -106.5 -36t-47.5 -101h-123q12 113 84.5 178.5t194.5 65.5q123 0 204 -70t81 -184q0 -63 -34.5 -118.5 t-94.5 -84.5q70 -28 106.5 -89.5t36.5 -137.5q0 -128 -86 -201.5t-225 -73.5q-124 0 -210 71.5t-87 184.5z" />
<glyph unicode="&#xb4;" horiz-adv-x="733" d="M160 1188l243 336l172 -78l-313 -316z" />
<glyph unicode="&#xb5;" horiz-adv-x="1048" d="M143 -541v1504h164v-537q0 -56 3.5 -94.5t16 -80.5t35 -67.5t63.5 -42t99 -16.5t99 16.5t63.5 42t35 67.5t16 80.5t3.5 94.5v537h164v-555q0 -435 -381 -435q-59 0 -107.5 19.5t-109.5 77.5v-611h-164z" />
<glyph unicode="&#xb6;" horiz-adv-x="1212" d="M121 1018q-7 92 23.5 186.5t88 169.5t144 122.5t184.5 47.5h533v-133h-119v-1724h-133v1724h-166v-1724h-133v893q-176 0 -291.5 117t-130.5 321z" />
<glyph unicode="&#xb7;" horiz-adv-x="630" d="M201 524q0 46 33.5 79.5t80.5 33.5t81 -33.5t34 -79.5q0 -47 -34 -81.5t-81 -34.5t-80.5 34.5t-33.5 81.5z" />
<glyph unicode="&#xb8;" horiz-adv-x="665" d="M160 -350l196 303l152 -62l-234 -299z" />
<glyph unicode="&#xb9;" horiz-adv-x="755" d="M233 1448l60 106h229v-925h-123v819h-166z" />
<glyph unicode="&#xba;" horiz-adv-x="690" d="M16 1264q0 128 96 217.5t234 89.5t234 -89.5t96 -217.5q0 -127 -96.5 -215t-233.5 -88t-233.5 88t-96.5 215zM123 1266q0 -91 63 -153t160 -62t160 62t63 153q0 89 -63 152t-160 63t-160 -63t-63 -152z" />
<glyph unicode="&#xbb;" horiz-adv-x="1024" d="M139 152l277 340l-277 350l109 86l344 -436l-344 -424zM487 152l277 340l-277 350l109 86l344 -436l-344 -424z" />
<glyph unicode="&#xbc;" horiz-adv-x="1892" d="M205 1448l59 106h230v-925h-123v819h-166zM428 23l899 1548l90 -49l-899 -1549zM940 150l623 829h2v-723h123v-106h-123v-150h-123v150h-502zM1147 256h295v389h-4z" />
<glyph unicode="&#xbd;" horiz-adv-x="1892" d="M205 1448l59 106h230v-925h-123v819h-166zM336 23l899 1548l90 -49l-899 -1549zM1038 0l469 512q58 64 58 156q0 76 -53 122t-136 46q-90 0 -140 -49t-50 -132h-123q3 122 90.5 204.5t218.5 82.5q135 0 225.5 -77t90.5 -197q0 -123 -66 -195l-338 -367h404v-106h-650z " />
<glyph unicode="&#xbe;" horiz-adv-x="1892" d="M164 868h123q0 -69 50.5 -109t127.5 -40q81 0 132.5 49t51.5 125q0 80 -54.5 126.5t-145.5 43.5v106q82 0 134 38.5t52 105.5q0 69 -50 110t-114 41q-67 0 -106.5 -36t-47.5 -101h-122q12 113 84 178.5t194 65.5q123 0 204 -70t81 -184q0 -63 -34.5 -118.5t-94.5 -84.5 q70 -28 106.5 -89.5t36.5 -137.5q0 -128 -86 -201.5t-225 -73.5q-124 0 -210 71.5t-87 184.5zM547 23l899 1548l90 -49l-899 -1549zM981 150l623 829h2v-723h123v-106h-123v-150h-123v150h-502zM1188 256h295v389h-4z" />
<glyph unicode="&#xbf;" horiz-adv-x="999" d="M127 -231q0 78 28.5 151.5t82.5 122.5q12 10 24.5 19.5t29 18t28.5 15t32.5 14.5t30 12t33.5 11.5t31 9.5t33 10t30 9q75 21 116.5 60t41.5 110q0 69 -49.5 116.5t-118.5 47.5q-81 0 -123.5 -57t-42.5 -140h-166q-5 149 90.5 251.5t243.5 102.5q142 0 238 -96.5 t96 -237.5q0 -67 -21 -119t-62 -88t-87.5 -60.5t-110.5 -45.5q-10 -3 -29 -9q-34 -10 -51 -16t-46.5 -17.5t-44.5 -22t-35 -27.5t-30 -36.5t-17 -46.5t-7 -60q0 -94 59.5 -153.5t151.5 -59.5q87 0 144 58t57 144q0 45 -13 99h170l8 -109q0 -156 -109.5 -253t-266.5 -97 t-263 106t-106 263zM389 874q0 47 34 81t81 34t80.5 -34t33.5 -81t-33.5 -80.5t-80.5 -33.5t-81 33.5t-34 80.5z" />
<glyph unicode="&#xc0;" horiz-adv-x="1431" d="M12 0l713 1618l694 -1618h-190l-182 438h-660l-186 -438h-189zM428 1976l172 78l244 -336l-103 -57zM457 598h522l-258 619z" />
<glyph unicode="&#xc1;" horiz-adv-x="1431" d="M12 0l713 1618l694 -1618h-190l-182 438h-660l-186 -438h-189zM457 598h522l-258 619zM592 1718l244 336l172 -78l-314 -315z" />
<glyph unicode="&#xc2;" horiz-adv-x="1431" d="M12 0l713 1618l694 -1618h-190l-182 438h-660l-186 -438h-189zM395 1767l320 273l323 -273l-118 -92l-205 174l-203 -174zM457 598h522l-258 619z" />
<glyph unicode="&#xc3;" horiz-adv-x="1431" d="M12 0l713 1618l694 -1618h-190l-182 438h-660l-186 -438h-189zM358 1815q43 75 91.5 118t117.5 43q74 0 166 -47q9 -4 29 -13.5t29.5 -13.5t24 -9.5t26 -8t22.5 -2.5q27 0 50.5 16.5t36 34.5t28.5 47l96 -77q-29 -72 -87 -119t-130 -47q-57 0 -153 47q-100 45 -144 45 q-38 0 -60 -25t-42 -69zM457 598h522l-258 619z" />
<glyph unicode="&#xc4;" horiz-adv-x="1431" d="M12 0l713 1618l694 -1618h-190l-182 438h-660l-186 -438h-189zM403 1864q0 46 32.5 78t78.5 32t78.5 -32t32.5 -78t-32.5 -78.5t-78.5 -32.5t-78.5 32.5t-32.5 78.5zM457 598h522l-258 619zM807 1864q0 46 32.5 78t78.5 32t78 -32t32 -78t-32 -78.5t-78 -32.5t-78.5 32.5 t-32.5 78.5z" />
<glyph unicode="&#xc5;" horiz-adv-x="1431" d="M12 0l713 1618l694 -1618h-190l-182 438h-660l-186 -438h-189zM457 598h522l-258 619zM518 1862q0 82 59 140t142 58q82 0 140.5 -58t58.5 -140q0 -83 -58 -142t-141 -59t-142 59t-59 142zM621 1862q0 -40 29 -69.5t69 -29.5q39 0 67.5 29.5t28.5 69.5t-28 68t-68 28 t-69 -28t-29 -68z" />
<glyph unicode="&#xc6;" horiz-adv-x="2048" d="M12 0l688 1544h678l70 -160h-625l193 -460h608l72 -160h-611l252 -604h627l68 -160h-805l-183 434h-659l-182 -434h-191zM459 594h516l-254 608z" />
<glyph unicode="&#xc7;" horiz-adv-x="1468" d="M68 766q0 217 108 402.5t293.5 294t402.5 108.5q257 0 461 -152v-213q-93 97 -216 151t-255 54q-168 0 -312 -88.5t-227 -235.5t-83 -315t83.5 -315t228.5 -235.5t314 -88.5q128 0 250 55t217 150v-213q-211 -152 -461 -152q-161 0 -309 63t-256.5 169t-173.5 253 t-65 308zM561 -350l197 303l151 -62l-233 -299z" />
<glyph unicode="&#xc8;" horiz-adv-x="1093" d="M156 0v1544h800v-160h-628v-458h610v-160h-610v-606h628v-160h-800zM289 1976l172 78l244 -336l-103 -57z" />
<glyph unicode="&#xc9;" horiz-adv-x="1093" d="M156 0v1544h800v-160h-628v-458h610v-160h-610v-606h628v-160h-800zM422 1718l244 336l172 -78l-314 -315z" />
<glyph unicode="&#xca;" horiz-adv-x="1093" d="M156 0v1544h800v-160h-628v-458h610v-160h-610v-606h628v-160h-800zM225 1767l320 273l323 -273l-118 -92l-205 174l-203 -174z" />
<glyph unicode="&#xcb;" horiz-adv-x="1093" d="M156 0v1544h800v-160h-628v-458h610v-160h-610v-606h628v-160h-800zM236 1864q0 46 32 78t78 32t78.5 -32t32.5 -78t-32.5 -78.5t-78.5 -32.5t-78 32.5t-32 78.5zM639 1864q0 46 32.5 78t78.5 32t78 -32t32 -78t-32 -78.5t-78 -32.5t-78.5 32.5t-32.5 78.5z" />
<glyph unicode="&#xcc;" horiz-adv-x="489" d="M-14 1976l172 78l243 -336l-102 -57zM160 0v1544h172v-1544h-172z" />
<glyph unicode="&#xcd;" horiz-adv-x="489" d="M88 1718l244 336l172 -78l-314 -315zM160 0v1544h172v-1544h-172z" />
<glyph unicode="&#xce;" horiz-adv-x="489" d="M-76 1767l320 273l323 -273l-118 -92l-205 174l-203 -174zM160 0v1544h172v-1544h-172z" />
<glyph unicode="&#xcf;" horiz-adv-x="489" d="M-68 1864q0 46 32.5 78t78.5 32t78.5 -32t32.5 -78t-32.5 -78.5t-78.5 -32.5t-78.5 32.5t-32.5 78.5zM160 0v1544h172v-1544h-172zM336 1864q0 46 32 78t78 32t78.5 -32t32.5 -78t-32.5 -78.5t-78.5 -32.5t-78 32.5t-32 78.5z" />
<glyph unicode="&#xd0;" horiz-adv-x="1388" d="M0 758v147h156v639h290q193 0 334.5 -38.5t268.5 -147.5q256 -221 256 -588q0 -350 -252 -575q-129 -115 -270 -155t-341 -40h-286v758h-156zM328 160h125q158 0 273.5 33t213.5 126q94 88 143.5 205.5t49.5 247.5q0 134 -51.5 255.5t-149.5 207.5q-98 87 -212 118 t-267 31h-125v-479h274v-147h-274v-598z" />
<glyph unicode="&#xd1;" horiz-adv-x="1708" d="M166 0v1610l1204 -1262v1196h172v-1614l-1204 1260v-1190h-172zM496 1815q43 75 91.5 118t117.5 43q73 0 165 -47q9 -4 29 -13.5t29.5 -13.5t24 -9.5t26 -8t22.5 -2.5q27 0 50.5 16.5t36 34.5t28.5 47l96 -77q-29 -72 -87 -119t-130 -47q-57 0 -153 47q-100 45 -144 45 q-38 0 -60 -25t-42 -69z" />
<glyph unicode="&#xd2;" horiz-adv-x="1765" d="M78 770q0 163 64.5 311.5t172.5 255.5t257 170.5t311 63.5t311 -63.5t257 -170.5t172.5 -255.5t64.5 -311.5t-64.5 -311t-172.5 -254.5t-257 -169t-311 -62.5t-311 62.5t-257 169t-172.5 254.5t-64.5 311zM250 772q0 -128 50 -246t134.5 -204t202 -137.5t246.5 -51.5 t246.5 51.5t202 137.5t134.5 204t50 246q0 129 -49.5 247t-134 204t-202 137t-247.5 51t-247.5 -51t-202 -137t-134 -204t-49.5 -247zM594 1976l172 78l244 -336l-103 -57z" />
<glyph unicode="&#xd3;" horiz-adv-x="1765" d="M78 770q0 163 64.5 311.5t172.5 255.5t257 170.5t311 63.5t311 -63.5t257 -170.5t172.5 -255.5t64.5 -311.5t-64.5 -311t-172.5 -254.5t-257 -169t-311 -62.5t-311 62.5t-257 169t-172.5 254.5t-64.5 311zM250 772q0 -128 50 -246t134.5 -204t202 -137.5t246.5 -51.5 t246.5 51.5t202 137.5t134.5 204t50 246q0 129 -49.5 247t-134 204t-202 137t-247.5 51t-247.5 -51t-202 -137t-134 -204t-49.5 -247zM758 1718l243 336l173 -78l-314 -315z" />
<glyph unicode="&#xd4;" horiz-adv-x="1765" d="M78 770q0 163 64.5 311.5t172.5 255.5t257 170.5t311 63.5t311 -63.5t257 -170.5t172.5 -255.5t64.5 -311.5t-64.5 -311t-172.5 -254.5t-257 -169t-311 -62.5t-311 62.5t-257 169t-172.5 254.5t-64.5 311zM250 772q0 -128 50 -246t134.5 -204t202 -137.5t246.5 -51.5 t246.5 51.5t202 137.5t134.5 204t50 246q0 129 -49.5 247t-134 204t-202 137t-247.5 51t-247.5 -51t-202 -137t-134 -204t-49.5 -247zM561 1767l320 273l323 -273l-119 -92l-204 174l-203 -174z" />
<glyph unicode="&#xd5;" horiz-adv-x="1765" d="M78 770q0 163 64.5 311.5t172.5 255.5t257 170.5t311 63.5t311 -63.5t257 -170.5t172.5 -255.5t64.5 -311.5t-64.5 -311t-172.5 -254.5t-257 -169t-311 -62.5t-311 62.5t-257 169t-172.5 254.5t-64.5 311zM250 772q0 -128 50 -246t134.5 -204t202 -137.5t246.5 -51.5 t246.5 51.5t202 137.5t134.5 204t50 246q0 129 -49.5 247t-134 204t-202 137t-247.5 51t-247.5 -51t-202 -137t-134 -204t-49.5 -247zM524 1815q43 75 91.5 118t117.5 43q74 0 166 -47q9 -4 29 -13.5t29.5 -13.5t24 -9.5t26 -8t22.5 -2.5q27 0 50.5 16.5t36 34.5t28.5 47 l96 -77q-29 -72 -87 -119t-130 -47q-58 0 -154 47q-100 45 -143 45q-38 0 -60 -25t-42 -69z" />
<glyph unicode="&#xd6;" horiz-adv-x="1765" d="M78 770q0 163 64.5 311.5t172.5 255.5t257 170.5t311 63.5t311 -63.5t257 -170.5t172.5 -255.5t64.5 -311.5t-64.5 -311t-172.5 -254.5t-257 -169t-311 -62.5t-311 62.5t-257 169t-172.5 254.5t-64.5 311zM250 772q0 -128 50 -246t134.5 -204t202 -137.5t246.5 -51.5 t246.5 51.5t202 137.5t134.5 204t50 246q0 129 -49.5 247t-134 204t-202 137t-247.5 51t-247.5 -51t-202 -137t-134 -204t-49.5 -247zM571 1864q0 46 32.5 78t78.5 32t78.5 -32t32.5 -78t-32.5 -78.5t-78.5 -32.5t-78.5 32.5t-32.5 78.5zM975 1864q0 46 32 78t78 32 t78.5 -32t32.5 -78t-32.5 -78.5t-78.5 -32.5t-78 32.5t-32 78.5z" />
<glyph unicode="&#xd7;" d="M135 141l383 383l-383 383l113 113l383 -383l381 383l114 -113l-383 -383l383 -383l-114 -112l-381 383l-383 -383z" />
<glyph unicode="&#xd8;" horiz-adv-x="1765" d="M78 770q0 163 64.5 311.5t172.5 255.5t257 170.5t311 63.5q144 0 276 -49t238 -138l188 187l94 -92l-188 -187q94 -106 145.5 -240t51.5 -282q0 -163 -64.5 -311t-172.5 -254.5t-257 -169t-311 -62.5q-147 0 -281 50t-242 141l-184 -184l-90 96l182 182 q-190 219 -190 512zM250 772q0 -221 137 -395l895 893q-170 141 -399 141q-130 0 -247.5 -51t-202 -137t-134 -204t-49.5 -247zM479 283q177 -150 404 -150q129 0 246.5 51.5t202 137.5t134.5 204t50 246q0 226 -142 404z" />
<glyph unicode="&#xd9;" horiz-adv-x="1402" d="M152 578v966h172v-919v-21q0 -56 1 -86.5t6.5 -78.5t20.5 -86.5t39 -71.5q49 -68 136 -108t175 -40q85 0 168 37t136 100q12 14 22 31t17.5 31t13 35.5t9.5 34t6.5 38t4 36t2 39t0.5 36v38.5v36v919h172v-966q0 -148 -25.5 -244.5t-109.5 -183.5q-79 -85 -188 -131 t-228 -46q-110 0 -216 41.5t-183 116.5q-93 89 -122 191.5t-29 255.5zM414 1976l172 78l243 -336l-102 -57z" />
<glyph unicode="&#xda;" horiz-adv-x="1402" d="M152 578v966h172v-919v-21q0 -56 1 -86.5t6.5 -78.5t20.5 -86.5t39 -71.5q49 -68 136 -108t175 -40q85 0 168 37t136 100q12 14 22 31t17.5 31t13 35.5t9.5 34t6.5 38t4 36t2 39t0.5 36v38.5v36v919h172v-966q0 -148 -25.5 -244.5t-109.5 -183.5q-79 -85 -188 -131 t-228 -46q-110 0 -216 41.5t-183 116.5q-93 89 -122 191.5t-29 255.5zM578 1718l243 336l172 -78l-313 -315z" />
<glyph unicode="&#xdb;" horiz-adv-x="1402" d="M152 578v966h172v-919v-21q0 -56 1 -86.5t6.5 -78.5t20.5 -86.5t39 -71.5q49 -68 136 -108t175 -40q85 0 168 37t136 100q12 14 22 31t17.5 31t13 35.5t9.5 34t6.5 38t4 36t2 39t0.5 36v38.5v36v919h172v-966q0 -148 -25.5 -244.5t-109.5 -183.5q-79 -85 -188 -131 t-228 -46q-110 0 -216 41.5t-183 116.5q-93 89 -122 191.5t-29 255.5zM381 1767l319 273l324 -273l-119 -92l-205 174l-202 -174z" />
<glyph unicode="&#xdc;" horiz-adv-x="1402" d="M152 578v966h172v-919v-21q0 -56 1 -86.5t6.5 -78.5t20.5 -86.5t39 -71.5q49 -68 136 -108t175 -40q85 0 168 37t136 100q12 14 22 31t17.5 31t13 35.5t9.5 34t6.5 38t4 36t2 39t0.5 36v38.5v36v919h172v-966q0 -148 -25.5 -244.5t-109.5 -183.5q-79 -85 -188 -131 t-228 -46q-110 0 -216 41.5t-183 116.5q-93 89 -122 191.5t-29 255.5zM389 1864q0 46 32.5 78t78.5 32t78 -32t32 -78t-32 -78.5t-78 -32.5t-78.5 32.5t-32.5 78.5zM793 1864q0 46 32 78t78 32t78.5 -32t32.5 -78t-32.5 -78.5t-78.5 -32.5t-78 32.5t-32 78.5z" />
<glyph unicode="&#xdd;" horiz-adv-x="1214" d="M16 1544h199l393 -688l393 688h199l-506 -880v-664h-172v664zM524 1718l244 336l172 -78l-313 -315z" />
<glyph unicode="&#xde;" horiz-adv-x="1030" d="M156 0v1544h172v-287h82q63 0 102.5 -2t94 -9t100.5 -24.5t86 -45.5q84 -58 129 -152.5t45 -200.5q0 -96 -38.5 -184t-109.5 -147q-125 -103 -366 -103h-125v-389h-172zM328 549h114q353 0 353 278q0 53 -12.5 94.5t-32 69.5t-51.5 48.5t-64 31.5t-76.5 17.5t-81 8 t-86.5 1.5h-63v-549z" />
<glyph unicode="&#xdf;" horiz-adv-x="1181" d="M57 811v152h90v294q0 99 16 177.5t64 138.5q54 70 142.5 106.5t183.5 36.5q169 0 283 -109t114 -276q0 -95 -45.5 -177t-126.5 -122q99 -34 175 -111.5t115.5 -177t39.5 -204.5q0 -155 -82 -285.5t-216.5 -204.5t-289.5 -76v152q176 11 298 129t122 291q0 87 -38.5 168.5 t-106.5 134.5q-100 75 -275 90v152q116 -2 191 66t75 183q0 100 -67 163t-168 63q-71 0 -130.5 -31t-82.5 -92q-13 -32 -19.5 -87t-7 -82t-0.5 -91v-1182h-164v811h-90z" />
<glyph unicode="&#xe0;" horiz-adv-x="1181" d="M74 479q0 138 54.5 253t161.5 186t247 71q97 0 182.5 -43.5t146.5 -120.5h4v138h164v-963h-164v133h-4q-127 -160 -331 -160q-137 0 -244 71.5t-162 186t-55 248.5zM242 492q0 -150 84.5 -258.5t230.5 -108.5q152 0 237 105t85 259q0 149 -88 249t-236 100 q-138 0 -225.5 -103t-87.5 -243zM303 1446l172 78l244 -336l-103 -58z" />
<glyph unicode="&#xe1;" horiz-adv-x="1181" d="M74 479q0 138 54.5 253t161.5 186t247 71q97 0 182.5 -43.5t146.5 -120.5h4v138h164v-963h-164v133h-4q-127 -160 -331 -160q-137 0 -244 71.5t-162 186t-55 248.5zM242 492q0 -150 84.5 -258.5t230.5 -108.5q152 0 237 105t85 259q0 149 -88 249t-236 100 q-138 0 -225.5 -103t-87.5 -243zM467 1188l244 336l172 -78l-314 -316z" />
<glyph unicode="&#xe2;" horiz-adv-x="1181" d="M74 479q0 138 54.5 253t161.5 186t247 71q97 0 182.5 -43.5t146.5 -120.5h4v138h164v-963h-164v133h-4q-127 -160 -331 -160q-137 0 -244 71.5t-162 186t-55 248.5zM242 492q0 -150 84.5 -258.5t230.5 -108.5q152 0 237 105t85 259q0 149 -88 249t-236 100 q-138 0 -225.5 -103t-87.5 -243zM270 1237l320 272l323 -272l-118 -92l-205 174l-203 -174z" />
<glyph unicode="&#xe3;" horiz-adv-x="1181" d="M74 479q0 138 54.5 253t161.5 186t247 71q97 0 182.5 -43.5t146.5 -120.5h4v138h164v-963h-164v133h-4q-127 -160 -331 -160q-137 0 -244 71.5t-162 186t-55 248.5zM233 1284q43 75 91.5 118.5t117.5 43.5q74 0 166 -47q9 -4 29 -13.5t29.5 -13.5t24 -9.5t26 -8 t22.5 -2.5q27 0 50.5 16.5t36 34.5t28.5 47l96 -78q-29 -72 -87 -119t-130 -47q-57 0 -153 47q-100 45 -144 45q-38 0 -60 -25t-42 -69zM242 492q0 -150 84.5 -258.5t230.5 -108.5q152 0 237 105t85 259q0 149 -88 249t-236 100q-138 0 -225.5 -103t-87.5 -243z" />
<glyph unicode="&#xe4;" horiz-adv-x="1181" d="M74 479q0 138 54.5 253t161.5 186t247 71q97 0 182.5 -43.5t146.5 -120.5h4v138h164v-963h-164v133h-4q-127 -160 -331 -160q-137 0 -244 71.5t-162 186t-55 248.5zM242 492q0 -150 84.5 -258.5t230.5 -108.5q152 0 237 105t85 259q0 149 -88 249t-236 100 q-138 0 -225.5 -103t-87.5 -243zM279 1333q0 46 32 78.5t78 32.5t78.5 -32.5t32.5 -78.5t-32.5 -78t-78.5 -32t-78 32t-32 78zM682 1333q0 46 32.5 78.5t78.5 32.5t78 -32.5t32 -78.5t-32 -78t-78 -32t-78.5 32t-32.5 78z" />
<glyph unicode="&#xe5;" horiz-adv-x="1181" d="M74 479q0 138 54.5 253t161.5 186t247 71q97 0 182.5 -43.5t146.5 -120.5h4v138h164v-963h-164v133h-4q-127 -160 -331 -160q-137 0 -244 71.5t-162 186t-55 248.5zM242 492q0 -150 84.5 -258.5t230.5 -108.5q152 0 237 105t85 259q0 149 -88 249t-236 100 q-138 0 -225.5 -103t-87.5 -243zM393 1331q0 82 59 140.5t142 58.5q82 0 140.5 -58.5t58.5 -140.5q0 -83 -58 -142t-141 -59t-142 59t-59 142zM496 1331q0 -40 29 -69t69 -29t68 29t28 69t-28 68t-68 28t-69 -28t-29 -68z" />
<glyph unicode="&#xe6;" horiz-adv-x="1726" d="M59 283q0 80 35 143t94 100.5t128.5 56.5t144.5 19q152 0 274 -82q-2 153 -64.5 235.5t-211.5 82.5q-115 0 -295 -62v156q188 57 305 57q115 0 214 -50.5t142 -147.5q55 93 158.5 145.5t214.5 52.5q112 0 203 -44.5t147.5 -119.5t85 -172.5t23.5 -206.5h-758 q2 -136 90 -228.5t225 -92.5q184 0 293 199l140 -80q-70 -130 -184 -200.5t-261 -70.5q-110 0 -207.5 49t-160.5 142q-110 -191 -361 -191q-76 0 -146.5 17.5t-132 53t-98.5 97.5t-37 142zM223 287q0 -45 22.5 -78t60 -50.5t77.5 -25.5t82 -8q45 0 87.5 8.5t83 26.5t65 53 t24.5 82q0 44 -26 77.5t-67.5 51t-83 25.5t-81.5 8q-56 0 -109 -16t-94 -56t-41 -98zM915 586h576q-18 106 -97.5 179t-185.5 73t-192 -74t-101 -178z" />
<glyph unicode="&#xe7;" horiz-adv-x="974" d="M59 481q0 141 69 258t187 183.5t258 66.5q162 0 297 -96v-217h-4q-128 162 -299 162q-147 0 -243.5 -104.5t-96.5 -252.5q0 -147 92.5 -251.5t239.5 -104.5q185 0 313 166h5v-219q-148 -99 -306 -99q-219 0 -365.5 145t-146.5 363zM315 -350l197 303l152 -62l-234 -299z " />
<glyph unicode="&#xe8;" horiz-adv-x="1062" d="M70 469q0 145 53 261.5t160.5 187.5t253.5 71q113 0 203.5 -44.5t147 -119.5t84 -173t21.5 -206h-755q2 -136 90 -228.5t225 -92.5q184 0 293 199l139 -80q-70 -130 -184 -200.5t-260 -70.5q-140 0 -248.5 66.5t-165.5 179t-57 250.5zM244 1446l172 78l243 -336l-102 -58 zM246 586h575q-18 106 -97.5 179t-184.5 73q-106 0 -192 -74t-101 -178z" />
<glyph unicode="&#xe9;" horiz-adv-x="1062" d="M70 469q0 145 53 261.5t160.5 187.5t253.5 71q113 0 203.5 -44.5t147 -119.5t84 -173t21.5 -206h-755q2 -136 90 -228.5t225 -92.5q184 0 293 199l139 -80q-70 -130 -184 -200.5t-260 -70.5q-140 0 -248.5 66.5t-165.5 179t-57 250.5zM246 586h575q-18 106 -97.5 179 t-184.5 73q-106 0 -192 -74t-101 -178zM408 1188l243 336l172 -78l-313 -316z" />
<glyph unicode="&#xea;" horiz-adv-x="1062" d="M70 469q0 145 53 261.5t160.5 187.5t253.5 71q113 0 203.5 -44.5t147 -119.5t84 -173t21.5 -206h-755q2 -136 90 -228.5t225 -92.5q184 0 293 199l139 -80q-70 -130 -184 -200.5t-260 -70.5q-140 0 -248.5 66.5t-165.5 179t-57 250.5zM211 1237l319 272l324 -272 l-119 -92l-205 174l-202 -174zM246 586h575q-18 106 -97.5 179t-184.5 73q-106 0 -192 -74t-101 -178z" />
<glyph unicode="&#xeb;" horiz-adv-x="1062" d="M70 469q0 145 53 261.5t160.5 187.5t253.5 71q113 0 203.5 -44.5t147 -119.5t84 -173t21.5 -206h-755q2 -136 90 -228.5t225 -92.5q184 0 293 199l139 -80q-70 -130 -184 -200.5t-260 -70.5q-140 0 -248.5 66.5t-165.5 179t-57 250.5zM219 1333q0 46 32.5 78.5t78.5 32.5 t78 -32.5t32 -78.5t-32 -78t-78 -32t-78.5 32t-32.5 78zM246 586h575q-18 106 -97.5 179t-184.5 73q-106 0 -192 -74t-101 -178zM623 1333q0 46 32 78.5t78 32.5t78.5 -32.5t32.5 -78.5t-32.5 -78t-78.5 -32t-78 32t-32 78z" />
<glyph unicode="&#xec;" horiz-adv-x="536" d="M10 1446l172 78l244 -336l-102 -58zM186 0v963h164v-963h-164z" />
<glyph unicode="&#xed;" horiz-adv-x="536" d="M113 1188l243 336l172 -78l-313 -316zM186 0v963h164v-963h-164z" />
<glyph unicode="&#xee;" horiz-adv-x="536" d="M-53 1237l319 272l324 -272l-119 -92l-205 174l-203 -174zM186 0v963h164v-963h-164z" />
<glyph unicode="&#xef;" horiz-adv-x="536" d="M-43 1333q0 46 32.5 78.5t78.5 32.5t78 -32.5t32 -78.5t-32 -78t-78 -32t-78.5 32t-32.5 78zM186 0v963h164v-963h-164zM360 1333q0 46 32.5 78.5t78.5 32.5t78.5 -32.5t32.5 -78.5t-32.5 -78t-78.5 -32t-78.5 32t-32.5 78z" />
<glyph unicode="&#xf0;" horiz-adv-x="1148" d="M70 481q0 130 60 244.5t173.5 187t255.5 72.5q64 0 119 -13.5t96 -38.5t61 -40.5t44 -38.5q-89 248 -347 489l-272 -182l-80 84l266 178q-103 91 -256 185l91 94q109 -70 161 -107t119 -94l283 189l82 -84l-275 -185q36 -35 56.5 -55.5t71 -79.5t84 -107.5t78.5 -128 t72 -155t46.5 -173.5t19.5 -198q0 -111 -31 -204.5t-81.5 -156t-117 -106t-135.5 -63t-139 -19.5q-211 0 -358 148t-147 358zM236 483q0 -156 99 -256t243 -100q149 0 244.5 104t95.5 252q0 146 -95 251.5t-243 105.5q-149 0 -246.5 -102.5t-97.5 -254.5z" />
<glyph unicode="&#xf1;" horiz-adv-x="1081" d="M156 0v963h163v-117h5q106 143 274 143q78 0 136.5 -22.5t94.5 -59.5t58 -92t30.5 -113.5t8.5 -130.5v-571h-164v543q0 46 -2 77t-8.5 68.5t-20 61.5t-35 45.5t-56.5 32t-81 10.5q-54 0 -95.5 -15.5t-67 -46t-42 -63.5t-23.5 -81.5t-9.5 -86t-2.5 -88.5v-457h-163z M182 1284q43 75 91.5 118.5t117.5 43.5q74 0 166 -47q9 -4 29 -13.5t29.5 -13.5t24 -9.5t26 -8t22.5 -2.5q27 0 50.5 16.5t36 34.5t28.5 47l96 -78q-29 -72 -87 -119t-130 -47q-58 0 -154 47q-100 45 -143 45q-38 0 -60 -25t-42 -69z" />
<glyph unicode="&#xf2;" horiz-adv-x="1150" d="M70 479q0 139 66.5 256.5t183 185.5t255.5 68t255.5 -68t183.5 -185.5t67 -256.5t-67.5 -255.5t-184 -183.5t-254.5 -67t-254.5 67t-183.5 183.5t-67 255.5zM233 481q0 -150 96 -253t246 -103t246.5 103t96.5 253q0 149 -96.5 253t-246.5 104q-149 0 -245.5 -104 t-96.5 -253zM287 1446l172 78l243 -336l-102 -58z" />
<glyph unicode="&#xf3;" horiz-adv-x="1150" d="M70 479q0 139 66.5 256.5t183 185.5t255.5 68t255.5 -68t183.5 -185.5t67 -256.5t-67.5 -255.5t-184 -183.5t-254.5 -67t-254.5 67t-183.5 183.5t-67 255.5zM233 481q0 -150 96 -253t246 -103t246.5 103t96.5 253q0 149 -96.5 253t-246.5 104q-149 0 -245.5 -104 t-96.5 -253zM451 1188l243 336l172 -78l-313 -316z" />
<glyph unicode="&#xf4;" horiz-adv-x="1150" d="M70 479q0 139 66.5 256.5t183 185.5t255.5 68t255.5 -68t183.5 -185.5t67 -256.5t-67.5 -255.5t-184 -183.5t-254.5 -67t-254.5 67t-183.5 183.5t-67 255.5zM233 481q0 -150 96 -253t246 -103t246.5 103t96.5 253q0 149 -96.5 253t-246.5 104q-149 0 -245.5 -104 t-96.5 -253zM254 1237l319 272l324 -272l-119 -92l-205 174l-202 -174z" />
<glyph unicode="&#xf5;" horiz-adv-x="1150" d="M70 479q0 139 66.5 256.5t183 185.5t255.5 68t255.5 -68t183.5 -185.5t67 -256.5t-67.5 -255.5t-184 -183.5t-254.5 -67t-254.5 67t-183.5 183.5t-67 255.5zM217 1284q43 75 91.5 118.5t117.5 43.5q74 0 166 -47q9 -4 29 -13.5t29.5 -13.5t24 -9.5t26 -8t22.5 -2.5 q27 0 50.5 16.5t36 34.5t28.5 47l96 -78q-29 -72 -87 -119t-130 -47q-58 0 -154 47q-100 45 -143 45q-38 0 -61 -25t-42 -69zM233 481q0 -150 96 -253t246 -103t246.5 103t96.5 253q0 149 -96.5 253t-246.5 104q-149 0 -245.5 -104t-96.5 -253z" />
<glyph unicode="&#xf6;" horiz-adv-x="1150" d="M70 479q0 139 66.5 256.5t183 185.5t255.5 68t255.5 -68t183.5 -185.5t67 -256.5t-67.5 -255.5t-184 -183.5t-254.5 -67t-254.5 67t-183.5 183.5t-67 255.5zM233 481q0 -150 96 -253t246 -103t246.5 103t96.5 253q0 149 -96.5 253t-246.5 104q-149 0 -245.5 -104 t-96.5 -253zM264 1333q0 46 32.5 78.5t78.5 32.5t78 -32.5t32 -78.5t-32 -78t-78 -32t-78.5 32t-32.5 78zM668 1333q0 46 32 78.5t78 32.5t78.5 -32.5t32.5 -78.5t-32.5 -78t-78.5 -32t-78 32t-32 78z" />
<glyph unicode="&#xf7;" d="M135 444v160h991v-160h-991zM514 137q0 47 35 82t82 35t82 -35t35 -82q0 -49 -34.5 -83t-82.5 -34t-82.5 34t-34.5 83zM514 911q0 47 35 82t82 35t82 -35t35 -82q0 -49 -34.5 -82.5t-82.5 -33.5t-82.5 33.5t-34.5 82.5z" />
<glyph unicode="&#xf8;" horiz-adv-x="1150" d="M41 23l139 139q-110 135 -110 317q0 139 66.5 256.5t183 185.5t255.5 68q186 0 320 -112l135 135l80 -78l-137 -137q108 -133 108 -318q0 -139 -67.5 -255.5t-184 -183.5t-254.5 -67q-177 0 -315 109l-139 -139zM233 481q0 -115 60 -207l491 492q-88 72 -209 72 q-149 0 -245.5 -104t-96.5 -253zM371 193q84 -68 204 -68q150 0 246.5 103t96.5 253q0 116 -60 201z" />
<glyph unicode="&#xf9;" horiz-adv-x="1048" d="M143 408v555h164v-537q0 -56 3.5 -94.5t16 -80.5t35 -67.5t63.5 -42t99 -16.5t99 16.5t63.5 42t35 67.5t16 80.5t3.5 94.5v537h164v-555q0 -435 -381 -435t-381 435zM236 1446l172 78l243 -336l-102 -58z" />
<glyph unicode="&#xfa;" horiz-adv-x="1048" d="M143 408v555h164v-537q0 -56 3.5 -94.5t16 -80.5t35 -67.5t63.5 -42t99 -16.5t99 16.5t63.5 42t35 67.5t16 80.5t3.5 94.5v537h164v-555q0 -435 -381 -435t-381 435zM399 1188l244 336l172 -78l-313 -316z" />
<glyph unicode="&#xfb;" horiz-adv-x="1048" d="M143 408v555h164v-537q0 -56 3.5 -94.5t16 -80.5t35 -67.5t63.5 -42t99 -16.5t99 16.5t63.5 42t35 67.5t16 80.5t3.5 94.5v537h164v-555q0 -435 -381 -435t-381 435zM203 1237l319 272l324 -272l-119 -92l-205 174l-203 -174z" />
<glyph unicode="&#xfc;" horiz-adv-x="1048" d="M143 408v555h164v-537q0 -56 3.5 -94.5t16 -80.5t35 -67.5t63.5 -42t99 -16.5t99 16.5t63.5 42t35 67.5t16 80.5t3.5 94.5v537h164v-555q0 -435 -381 -435t-381 435zM213 1333q0 46 32.5 78.5t78.5 32.5t78 -32.5t32 -78.5t-32 -78t-78 -32t-78.5 32t-32.5 78zM616 1333 q0 46 32.5 78.5t78.5 32.5t78.5 -32.5t32.5 -78.5t-32.5 -78t-78.5 -32t-78.5 32t-32.5 78z" />
<glyph unicode="&#xfd;" horiz-adv-x="1019" d="M-4 963h190l340 -691l312 691h186l-711 -1504h-186l311 631zM426 1188l244 336l172 -78l-314 -316z" />
<glyph unicode="&#xfe;" horiz-adv-x="1181" d="M147 -541v2231h164v-865h4q60 79 146 121.5t186 42.5q137 0 244 -72.5t162 -188t55 -249.5q0 -138 -54.5 -252.5t-161.5 -184t-247 -69.5q-99 0 -185.5 42t-144.5 120h-4v-676h-164zM303 492q0 -150 84.5 -258.5t230.5 -108.5q152 0 237 105t85 259q0 149 -88 249 t-236 100q-138 0 -225.5 -103t-87.5 -243z" />
<glyph unicode="&#xff;" horiz-adv-x="1019" d="M-4 963h190l340 -691l312 691h186l-711 -1504h-186l311 631zM209 1333q0 46 32 78.5t78 32.5t78.5 -32.5t32.5 -78.5t-32.5 -78t-78.5 -32t-78 32t-32 78zM612 1333q0 46 32.5 78.5t78.5 32.5t78.5 -32.5t32.5 -78.5t-32.5 -78t-78.5 -32t-78.5 32t-32.5 78z" />
<glyph unicode="&#x152;" horiz-adv-x="2437" d="M78 770q0 163 64.5 311.5t172.5 255.5t257 170.5t311 63.5q183 0 343 -87.5t263 -242.5h4v303h807v-160h-635v-458h616v-160h-616v-606h635v-160h-807v297h-4q-99 -153 -261 -239.5t-345 -84.5q-162 0 -311 62.5t-257 169t-172.5 254.5t-64.5 311zM250 772 q0 -128 50 -246t134.5 -204t202 -137.5t246.5 -51.5t246.5 51.5t202 137.5t134.5 204t50 246q0 129 -49.5 247t-134 204t-202 137t-247.5 51t-247.5 -51t-202 -137t-134 -204t-49.5 -247z" />
<glyph unicode="&#x153;" horiz-adv-x="1925" d="M70 479q0 139 66.5 256.5t183 185.5t255.5 68q137 -3 253 -64.5t173 -168.5q56 110 161 170t233 63q113 0 204 -44.5t148.5 -119.5t85.5 -173t22 -206h-759q2 -136 90 -228.5t225 -92.5q184 0 293 199l139 -80q-70 -130 -184 -200.5t-260 -70.5q-122 0 -233.5 62.5 t-164.5 167.5q-61 -107 -178.5 -168.5t-247.5 -61.5q-138 0 -254.5 67t-183.5 183.5t-67 255.5zM238 481q0 -150 96 -253t246 -103t246 103t96 253q0 149 -96.5 253t-245.5 104t-245.5 -104t-96.5 -253zM1110 586h576q-18 106 -97.5 179t-185.5 73t-192 -74t-101 -178z" />
<glyph unicode="&#x178;" horiz-adv-x="1214" d="M16 1544h199l393 -688l393 688h199l-506 -880v-664h-172v664zM319 1864q0 46 32.5 78t78.5 32t78.5 -32t32.5 -78t-32.5 -78.5t-78.5 -32.5t-78.5 32.5t-32.5 78.5zM723 1864q0 46 32.5 78t78.5 32t78 -32t32 -78t-32 -78.5t-78 -32.5t-78.5 32.5t-32.5 78.5z" />
<glyph unicode="&#x2c6;" horiz-adv-x="962" d="M160 1237l319 272l324 -272l-119 -92l-205 174l-203 -174z" />
<glyph unicode="&#x2dc;" horiz-adv-x="1036" d="M160 1284q43 75 91.5 118.5t117.5 43.5q74 0 166 -47q9 -4 29 -13.5t29.5 -13.5t24 -9.5t26 -8t22.5 -2.5q20 0 37.5 8t32 24.5t23.5 30.5t21 35l97 -78q-29 -71 -87.5 -118.5t-130.5 -47.5q-57 0 -153 47q-100 45 -144 45q-38 0 -60 -25t-42 -69z" />
<glyph unicode="&#x2000;" horiz-adv-x="1030" />
<glyph unicode="&#x2001;" horiz-adv-x="2060" />
<glyph unicode="&#x2002;" horiz-adv-x="1030" />
<glyph unicode="&#x2003;" horiz-adv-x="2060" />
<glyph unicode="&#x2004;" horiz-adv-x="686" />
<glyph unicode="&#x2005;" horiz-adv-x="515" />
<glyph unicode="&#x2006;" horiz-adv-x="343" />
<glyph unicode="&#x2007;" horiz-adv-x="343" />
<glyph unicode="&#x2008;" horiz-adv-x="257" />
<glyph unicode="&#x2009;" horiz-adv-x="412" />
<glyph unicode="&#x200a;" horiz-adv-x="114" />
<glyph unicode="&#x2010;" horiz-adv-x="425" d="M4 418v151h420v-151h-420z" />
<glyph unicode="&#x2011;" horiz-adv-x="425" d="M4 418v151h420v-151h-420z" />
<glyph unicode="&#x2012;" horiz-adv-x="425" d="M4 418v151h420v-151h-420z" />
<glyph unicode="&#x2013;" horiz-adv-x="1024" d="M0 418v151h1024v-151h-1024z" />
<glyph unicode="&#x2014;" horiz-adv-x="2048" d="M266 418v151h1516v-151h-1516z" />
<glyph unicode="&#x2018;" horiz-adv-x="591" d="M125 1049l233 522l111 -43l-193 -535z" />
<glyph unicode="&#x2019;" horiz-adv-x="591" d="M123 1036l192 535l152 -55l-234 -523z" />
<glyph unicode="&#x201a;" horiz-adv-x="591" d="M125 -307l192 532l152 -53l-233 -524z" />
<glyph unicode="&#x201c;" horiz-adv-x="935" d="M125 1049l233 522l111 -43l-193 -535zM469 1049l233 522l111 -43l-192 -535z" />
<glyph unicode="&#x201d;" horiz-adv-x="935" d="M125 1036l192 535l152 -55l-233 -523zM469 1036l193 535l151 -55l-233 -523z" />
<glyph unicode="&#x201e;" horiz-adv-x="950" d="M125 -307l192 532l152 -53l-233 -524zM483 -307l193 532l151 -53l-233 -524z" />
<glyph unicode="&#x2022;" horiz-adv-x="1212" d="M221 772q-1 161 111.5 274t273.5 113t274 -113t113 -274q0 -160 -114 -272.5t-273 -112.5t-272 112t-113 273z" />
<glyph unicode="&#x2026;" horiz-adv-x="2048" d="M229 90q0 46 34 79.5t81 33.5t81 -33.5t34 -79.5q0 -47 -34 -82t-81 -35t-81 35t-34 82zM909 90q0 46 34 79.5t81 33.5t81 -33.5t34 -79.5q0 -47 -34 -82t-81 -35t-81 35t-34 82zM1589 90q0 46 34 79.5t81 33.5t81 -33.5t34 -79.5q0 -47 -34 -82t-81 -35t-81 35t-34 82z " />
<glyph unicode="&#x202f;" horiz-adv-x="412" />
<glyph unicode="&#x2039;" horiz-adv-x="675" d="M84 492l344 436l109 -86l-277 -350l277 -340l-109 -84z" />
<glyph unicode="&#x203a;" horiz-adv-x="675" d="M139 152l277 340l-277 350l109 86l344 -436l-344 -424z" />
<glyph unicode="&#x205f;" horiz-adv-x="515" />
<glyph unicode="&#x20ac;" d="M59 559l47 131h105q-4 40 -4 86q0 15 1 43t1 39h-150l47 131h115q18 129 60 231.5t110 182t171.5 123t234.5 43.5q119 0 215 -31.5t149 -73.5v-170q-125 121 -346 121q-187 0 -293 -117t-129 -309h670l-47 -131h-641q0 -11 -1 -39.5t-1 -42.5q0 -18 1 -47t1 -39h579 l-47 -131h-514q28 -209 136 -321.5t288 -112.5q207 0 344 123v-172q-46 -41 -142.5 -71t-223.5 -30q-239 0 -386 145t-186 439h-164z" />
<glyph unicode="&#x2122;" horiz-adv-x="1925" d="M74 1421v123h698v-123h-287v-739h-123v739h-288zM938 682v862h207l248 -620l256 620h204v-862h-122v739h-5l-294 -739h-80l-287 739h-4v-739h-123z" />
<glyph unicode="&#xe000;" horiz-adv-x="962" d="M0 0v963h963v-963h-963z" />
</font>
</defs>
</svg>
