<?xml version="1.0" encoding="utf-8"?>
<!-- Generator: Adobe Illustrator 17.0.2, SVG Export Plug-In . SVG Version: 6.00 Build 0)  -->
<!DOCTYPE svg PUBLIC "-//W3C//DTD SVG 1.1//EN" "http://www.w3.org/Graphics/SVG/1.1/DTD/svg11.dtd">
<svg version="1.1" id="Layer_1" xmlns="http://www.w3.org/2000/svg" xmlns:xlink="http://www.w3.org/1999/xlink" x="0px" y="0px"
	 width="300px" height="300px" viewBox="0 0 300 300" enable-background="new 0 0 300 300" xml:space="preserve">
<g id="_x37_09-plus_x40_2x.png">
	<g>
		<path fill="#FFFFFF" d="M160.33,149.999L294.632,15.698c2.855-2.855,2.855-7.476,0-10.331c-2.85-2.85-7.476-2.855-10.331,0
			L150,139.669L15.698,5.367c-2.85-2.85-7.476-2.855-10.331,0c-2.855,2.855-2.85,7.481,0,10.331l134.302,134.302L5.367,284.301
			c-2.855,2.855-2.85,7.481,0,10.331c2.855,2.855,7.476,2.855,10.331,0L150,160.33l134.302,134.302
			c2.855,2.855,7.476,2.855,10.331,0c2.855-2.855,2.855-7.476,0-10.331L160.33,149.999z"/>
	</g>
</g>
</svg>
