<?xml version="1.0" encoding="utf-8"?>
<!-- Generator: Adobe Illustrator 17.1.0, SVG Export Plug-In . SVG Version: 6.00 Build 0)  -->
<!DOCTYPE svg PUBLIC "-//W3C//DTD SVG 1.1//EN" "http://www.w3.org/Graphics/SVG/1.1/DTD/svg11.dtd">
<svg version="1.1" id="Layer_1" xmlns="http://www.w3.org/2000/svg" xmlns:xlink="http://www.w3.org/1999/xlink" x="0px" y="0px"
	 viewBox="0 0 200 200" enable-background="new 0 0 200 200" xml:space="preserve">
<path fill="#17BAB8" d="M129.2,90.1l-18.1-13.7c-2.6-2-6.5-1.5-8.5,1.2L99.2,82l-3.5-4.5c-2-2.6-5.9-3.2-8.5-1.2L69.2,90.1
	c-2.6,2-3.2,10.9-1.2,13.6l0.8,9.6c1,1.4,4.3,2.2,7.5,2.3c2.8-7.5,11.7-13,22.5-13.2l0,0c0.1,0,0.3,0,0.4,0s0.3,0,0.4,0l0,0
	c10.7,0.1,19.7,5.7,22.5,13.2c3.3-0.2,6.5-1,7.5-2.3l0.8-9.6C132.4,101,131.9,92.1,129.2,90.1z"/>
<path fill="#7CCECF" d="M122.1,109v6.6c-2.8-7.5-11.7-13-22.5-13.2l0,0c-0.1,0-0.3,0-0.4,0s-0.3,0-0.4,0l0,0
	c-10.7,0.1-19.7,5.7-22.5,13.2V109c2.8-7.5,11.7-13,22.5-13.2l0,0c0.1,0,0.3,0,0.4,0s0.3,0,0.4,0l0,0
	C110.4,96,119.4,101.5,122.1,109z"/>
<ellipse fill="#383838" cx="60.7" cy="59.4" rx="16.9" ry="13.5"/>
<g id="XMLID_1_">
	<g>
		<path fill="#7CCECF" d="M82.5,86L76,118.4c0-5.6-1.2-10.9-3.4-15.7C77.5,98.5,81.1,92.6,82.5,86L82.5,86z"/>
		<path fill="#7CCECF" d="M53.3,50.2c16.5,0,29.8,13.4,29.8,29.8c0,2.1-0.2,4.1-0.6,6c-1.4,6.6-4.9,12.4-9.9,16.7
			c-6-13.1-19.2-22.2-34.5-22.2c-5.1,0-10,1-14.5,2.9c-0.1-1.1-0.2-2.2-0.2-3.4c0-5.4,1.4-10.5,3.9-14.8l0,0l0.7-1.1
			C33.4,55.7,42.7,50.2,53.3,50.2z"/>
		<path fill="#7CCECF" d="M11.4,91.5c3.5-3.5,7.6-6.3,12.3-8.2c1.7,14.9,14.3,26.4,29.6,26.4c7.4,0,14.1-2.7,19.3-7.1
			c2.2,4.8,3.4,10.1,3.4,15.7c0,20.9-17,37.9-37.9,37.9S0.2,139.3,0.2,118.4C0.2,107.9,4.5,98.4,11.4,91.5z"/>
		<path fill="#7CCECF" d="M38.1,80.5c15.3,0,28.5,9.1,34.5,22.2c-5.2,4.4-12,7.1-19.3,7.1c-15.3,0-28-11.6-29.6-26.4
			C28.1,81.5,33,80.5,38.1,80.5z"/>
		<path fill="#7CCECF" d="M11.4,91.5l16-26.4c-2.5,4.4-3.9,9.4-3.9,14.8c0,1.2,0.1,2.3,0.2,3.4C19,85.3,14.9,88.1,11.4,91.5z"/>
	</g>
</g>
<g>
	<path fill="#FFFFFF" d="M38.1,152c-18.5,0-33.6-15.1-33.6-33.6s15.1-33.6,33.6-33.6s33.6,15.1,33.6,33.6S56.6,152,38.1,152z"/>
	<path fill="#18BAB7" d="M38.1,87.1c17.3,0,31.3,14,31.3,31.3s-14,31.3-31.3,31.3s-31.3-14-31.3-31.3S20.8,87.1,38.1,87.1
		 M38.1,82.5c-19.8,0-35.8,16.1-35.8,35.8s16.1,35.9,35.8,35.9s35.8-16.1,35.8-35.9S57.9,82.5,38.1,82.5L38.1,82.5z"/>
</g>
<ellipse fill="#383838" cx="137.7" cy="59.4" rx="16.9" ry="13.5"/>
<g id="XMLID_2_">
	<g>
		<path fill="#7CCECF" d="M115.4,80c0,2.1,0.2,4.1,0.6,6c1.4,6.6,4.9,12.4,9.9,16.7c6-13.1,19.2-22.2,34.5-22.2c5.1,0,10,1,14.5,2.9
			c0.1-1.1,0.2-2.2,0.2-3.4c0-5.4-1.4-10.5-3.9-14.8l0,0l-0.7-1.1c-5.3-8.3-14.6-13.8-25.2-13.8C128.7,50.2,115.4,63.5,115.4,80z"/>
		<path fill="#7CCECF" d="M116,86l6.5,32.4c0-5.6,1.2-10.9,3.4-15.7C120.9,98.5,117.3,92.6,116,86L116,86z"/>
		<path fill="#7CCECF" d="M187.1,91.5c-3.5-3.5-7.6-6.3-12.3-8.2c-1.7,14.9-14.3,26.4-29.6,26.4c-7.4,0-14.1-2.7-19.3-7.1
			c-2.2,4.8-3.4,10.1-3.4,15.7c0,20.9,17,37.9,37.9,37.9s37.9-16.9,37.9-37.9C198.2,107.9,194,98.4,187.1,91.5z"/>
		<path fill="#7CCECF" d="M160.4,80.5c-15.3,0-28.5,9.1-34.5,22.2c5.2,4.4,12,7.1,19.3,7.1c15.3,0,28-11.6,29.6-26.4
			C170.4,81.5,165.5,80.5,160.4,80.5z"/>
		<path fill="#7CCECF" d="M187.1,91.5l-16-26.4c2.5,4.4,3.9,9.4,3.9,14.8c0,1.2-0.1,2.3-0.2,3.4C179.4,85.3,183.6,88.1,187.1,91.5z"
			/>
	</g>
</g>
<g>
	<path fill="#FFFFFF" d="M160.4,152c-18.5,0-33.6-15.1-33.6-33.6s15.1-33.6,33.6-33.6s33.6,15,33.6,33.5S178.9,152,160.4,152z"/>
	<path fill="#18BAB7" d="M160.4,87.1c17.3,0,31.3,14,31.3,31.3s-14,31.3-31.3,31.3s-31.3-14-31.3-31.3S143,87.1,160.4,87.1
		 M160.4,82.5c-19.8,0-35.8,16.1-35.8,35.8s16.1,35.9,35.8,35.9s35.8-16.1,35.8-35.9S180.1,82.5,160.4,82.5L160.4,82.5z"/>
</g>
<g>
	<path fill="#17BAB8" d="M99.2,62c4.3,0,6.9,2.6,8.6,5c1,1.5,4.5,6.5,4.9,10.6c0,0-10.3,3-13.5,3c-3.6,0-13.6-3-13.6-3
		c0.4-4,3.8-8.8,4.7-10.3C92,64.7,94.8,62,99.2,62z"/>
	<circle fill="#17BAB8" cx="99.2" cy="71.2" r="6"/>
</g>
<circle fill="#FFFFFF" stroke="#18BAB7" stroke-width="2" stroke-linecap="round" stroke-linejoin="round" cx="99.2" cy="81.2" r="13.1"/>
<circle fill="#ED3739" cx="99.2" cy="81.2" r="8.5"/>
<path fill="#D3EDED" d="M26.3,145.9c10.9,4.7,24.1,2.6,32.9-6.3c8.9-8.9,11-22,6.3-32.9L26.3,145.9z"/>
<path fill="#D3EDED" d="M148.5,145.9c10.9,4.7,24.1,2.6,32.9-6.3c8.9-8.9,11-22,6.3-32.9L148.5,145.9z"/>
</svg>
