<?xml version="1.0" encoding="utf-8"?>
<!-- Generator: Adobe Illustrator 17.1.0, SVG Export Plug-In . SVG Version: 6.00 Build 0)  -->
<!DOCTYPE svg PUBLIC "-//W3C//DTD SVG 1.1//EN" "http://www.w3.org/Graphics/SVG/1.1/DTD/svg11.dtd">
<svg version="1.1" id="Layer_1" xmlns="http://www.w3.org/2000/svg" xmlns:xlink="http://www.w3.org/1999/xlink" x="0px" y="0px"
	 viewBox="0 0 200 200" enable-background="new 0 0 200 200" xml:space="preserve">
<g id="_x31_052-database-selected_x40_2x.png">
	<g>
		<path d="M255,125.8c0.2,0.3,0.3,0.6,0.3,0.9c0,2.8-9,5-20,5s-20-2.2-20-5c0-0.3,0.1-0.6,0.3-0.9c-0.6-0.3-1.1-0.6-1.5-1
			c-0.5,0.6-0.8,1.2-0.8,1.8v8c0,3.9,9.8,7,22,7s22-3.1,22-7v-8c0-0.6-0.3-1.2-0.8-1.8C256.1,125.2,255.6,125.5,255,125.8z
			 M235.3,99.7c12.2,0,22-3.1,22-7s-9.8-7-22-7s-22,3.1-22,7S223.2,99.7,235.3,99.7z M255,111.8c0.2,0.3,0.3,0.6,0.3,0.9
			c0,2.8-9,5-20,5s-20-2.2-20-5c0-0.3,0.1-0.6,0.3-0.9c-0.6-0.3-1.1-0.6-1.5-1c-0.5,0.6-0.8,1.2-0.8,1.8v8c0,3.9,9.8,7,22,7
			s22-3.1,22-7v-8c0-0.6-0.3-1.2-0.8-1.8C256.1,111.2,255.6,111.5,255,111.8z M255,97.8c0.2,0.3,0.3,0.6,0.3,0.9c0,2.8-9,5-20,5
			s-20-2.2-20-5c0-0.3,0.1-0.6,0.3-0.9c-0.6-0.3-1.1-0.6-1.5-1c-0.5,0.6-0.8,1.2-0.8,1.8v8c0,3.9,9.8,7,22,7s22-3.1,22-7v-8
			c0-0.6-0.3-1.2-0.8-1.8C256.1,97.2,255.6,97.5,255,97.8z"/>
	</g>
</g>
<g>
	<path fill="#14BAB8" d="M22.7,107.7v19.4c0,12.4,32.1,22.4,71.8,22.4c39.6,0,71.8-10,71.8-22.4v-19.4H22.7z"/>
	<ellipse fill="#A6DBDE" cx="94.4" cy="107.7" rx="71.8" ry="22.4"/>
</g>
<g>
	<path fill="#14BAB8" d="M22.7,85.5v17.3c0,11,32.1,20,71.8,20c39.6,0,71.8-8.9,71.8-20V85.5H22.7z"/>
	<ellipse fill="#A6DBDE" cx="94.4" cy="85.5" rx="71.8" ry="20"/>
</g>
<g>
	<path fill="#14BAB8" d="M22.7,66.6v14.8c0,9.4,32.1,17.1,71.8,17.1c39.6,0,71.8-7.6,71.8-17.1V66.6H22.7z"/>
	<ellipse fill="#A6DBDE" cx="94.4" cy="66.6" rx="71.8" ry="17.1"/>
</g>
<g>
	<path fill="#888885" d="M135.8,85.5c-0.1-2.8-1.8-6.6-3.7-4.7l-9.6,11.3c-1.9,1.9-5.1,1.9-7.1,0l-10-10c-1.9-1.9-1.9-5.1,0-7.1
		l9.6-9.6c1.9-1.9,1-5.3-1.3-5c0,0-14.6,0.7-21.8,7.9c-7.2,7.2-9.2,17.6-6.3,26.5L73,107.5c-3.8,3.8-10.1,10.1-13.9,13.9l-23.8,24.1
		c-3.8,3.8-3.8,10.1,0,13.9l2.9,2.9c3.8,3.8,10.1,3.8,13.9,0l23.8-23.8c3.8-3.8,6.9-7.1,6.9-7.1s3.2-3.2,7.1-7.1l12.6-12.6
		c9.1,2.9,19.3,0.9,26.5-6.3C136.3,98.4,135.8,85.5,135.8,85.5 M51.1,157.6c-3,3-8,3-11,0c-3-3-3-8,0-11c3-3,8-3,11,0
		C54.1,149.6,54.1,154.4,51.1,157.6"/>
	<path fill="#E2E2E2" d="M135.2,83.9c-0.1-2.8-1.8-4.9-3.7-3l-9.6,9.6c-1.9,1.9-5.1,1.9-7.1,0l-10-10c-1.9-1.9-1.9-5.1,0-7.1
		l9.6-9.6c1.9-1.9,1.3-3.7-1.5-3.7c0,0-14.5-0.6-21.7,6.6S82.1,84.3,85,93.2l-12.6,12.6c-3.8,3.8-10.1,10.1-13.9,13.9l-23.8,23.8
		c-3.8,3.8-3.8,10.1,0,13.9l2.9,2.9c3.8,3.8,10.1,3.8,13.9,0l23.8-23.8c3.8-3.8,6.9-7.1,6.9-7.1s3.2-3.2,7.1-7.1l12.6-12.6
		c9.1,2.9,19.3,0.9,26.5-6.3C135.9,96.9,135.2,83.9,135.2,83.9 M50.5,156.2c-3,3-8,3-11,0c-3-3-3-8,0-11c3-3,8-3,11,0
		C53.6,148.1,53.6,153,50.5,156.2"/>
</g>
</svg>
