<?xml version="1.0" encoding="utf-8"?>
<!-- Generator: Adobe Illustrator 17.1.0, SVG Export Plug-In . SVG Version: 6.00 Build 0)  -->
<!DOCTYPE svg PUBLIC "-//W3C//DTD SVG 1.1//EN" "http://www.w3.org/Graphics/SVG/1.1/DTD/svg11.dtd">
<svg version="1.1" id="Layer_1" xmlns="http://www.w3.org/2000/svg" xmlns:xlink="http://www.w3.org/1999/xlink" x="0px" y="0px"
	 viewBox="123.3 0 595.3 595.3" enable-background="new 123.3 0 595.3 595.3" xml:space="preserve">
<g id="Cu1nFO.tif">
	<g>
		<path fill="#FFFFFF" d="M132.2,474.4c0-118.5,0-236.9,0-355.4c62.5,0,125,0,187.5,0c5.4,1.2,10.1,1.8,15.5,3
			c45.8,7.1,74.4,36.3,78,82.1c1.8,22.6-1.2,44.1-17.3,61.3c-6.5,7.1-15.5,12.5-22.6,19c6.5,3.6,13.7,7.1,20.8,12.5
			c20.2,15.5,29.8,36.9,31,61.3c3,39.3-10.7,71.4-42.3,95.8c-20.8,16.1-46.4,20.2-71.4,20.8C251.3,475,191.8,474.4,132.2,474.4z
			 M204.9,411.9c33.3,0,66.1,1.2,98.2,0c33.9-1.2,47.6-22.6,46.4-53c-1.2-22-13.7-36.9-35.7-38.1c-35.7-2.4-72-1.8-107.7-1.8
			c0,0-0.6,0-0.6,0.6C204.9,350,204.9,381,204.9,411.9z M204.3,258.4c1.2,0.6,1.8,0.6,3,0.6c29.2,0,58.9,0.6,88.1-0.6
			c10.7-0.6,21.4-3.6,31-7.7c20.8-8.3,20.2-48.2,5.4-58.9c-3.6-2.4-7.1-5.4-11.3-6c-9.5-1.8-19-4.2-28.6-4.2
			c-24.4-0.6-48.8,0-72.6-0.6c-4.8,0-8.9,0-13.7,0c0,1.8-0.6,2.4-0.6,3.6C204.3,208.9,204.3,233.3,204.3,258.4z"/>
		<path fill="#FFFFFF" d="M706.1,327.4c0,11.3,0,23.2,0,34.5c-3,0-6,0.6-8.9,0.6c-57.7,0-115.5,0-173.8,0c-3,0-6,0-9.5,0
			c0.6,5.4,1.2,9.5,1.8,14.3c4.2,25.6,21.4,44.1,45.8,48.8c29.2,6,54.2-0.6,68.5-24.4c1.2-2.4,4.8-3.6,7.7-4.2
			c19.6-0.6,39.3,0,58.9,0c1.8,0,3.6,0.6,6,0.6c-1.2,5.4-2.4,10.1-4.2,14.3c-16.7,36.9-45.2,58.9-83.9,67.3
			c-8.3,1.8-23.2,4.2-39.9,4.2l0,0c0,0-22-1.2-46.4-8.9c-38.7-12.5-66.7-37.5-77.4-78c-8.9-35.1-8.9-70.8,1.2-106
			c11.3-38.1,35.7-64.3,73.2-78.6c23.8-8.9,48.8-9.5,73.8-6.5c50.6,6,89.3,39.9,101.2,89.3C703.1,306,704.3,316.7,706.1,327.4z
			 M633.5,316.7c-0.6-32.1-25-56.6-64.3-54.8c-32.1,1.8-51.2,29.8-51.8,54.8C556.1,316.7,594.2,316.7,633.5,316.7z"/>
		<path fill="#FFFFFF" d="M647.2,139.9c0,11.9,0,23.2,0,35.1c-51.2,0-102.4,0-153.6,0c0-11.9,0-23.2,0-35.1
			C544.8,139.9,596,139.9,647.2,139.9z"/>
	</g>
</g>
</svg>
