<?xml version="1.0" encoding="utf-8"?>
<!-- Generator: Adobe Illustrator 17.1.0, SVG Export Plug-In . SVG Version: 6.00 Build 0)  -->
<!DOCTYPE svg PUBLIC "-//W3C//DTD SVG 1.1//EN" "http://www.w3.org/Graphics/SVG/1.1/DTD/svg11.dtd">
<svg version="1.1" id="Layer_1" xmlns="http://www.w3.org/2000/svg" xmlns:xlink="http://www.w3.org/1999/xlink" x="0px" y="0px"
	 viewBox="140 0 650 650" enable-background="new 123.3 0 595.3 595.3" xml:space="preserve">
<path fill="#1ebab8" d="M342.3,584.9c0-0.1-0.1-0.2-0.1-0.2c-5-1.2-5.4-3-5.8-7.9c0-0.2,0-0.5,0-0.7c0-29.6,0-59.3,0-88.9
	c0.1-61.1,0.3-122.1,0.3-183.2c0-31.8-0.2-63.6-0.3-95.4c0-1.4,0.1-2.8,0.4-4.2c0.4-2.3,1.9-4,4.3-4.3c3.1-0.3,6.2-0.3,9.3-0.4
	c1.2,0,2.3,0.2,3.5,0.2c28.2,0,56.5,0,84.7,0c2.6,0,5.3-0.1,7.9,0c3.1,0.2,4.7,1.9,4.7,5c0.1,4.4-0.1,8.7-0.1,13.1
	c0,6.5,0.1,13.1,0.1,19.6c0,3.7,0,7.3,0,11c0,0.8,0,1.7,0,2.5c1.8,0.7,1.8,0.7,2.7-0.6c3.9-6.3,8.2-12.3,13.1-17.8
	c7.5-8.6,16.3-15.7,25.9-21.8c15-9.6,31.4-15.6,48.9-18.4c5.6-0.9,11.2-1.4,16.9-1.7c5.1-0.3,10.3-0.5,15.4-0.3
	c19.4,0.8,38.5,3.3,56.8,10.3c13.2,5,25.1,12.2,35.5,21.9c8.8,8.2,16,17.7,21.7,28.4c6.7,12.5,11,25.8,14.3,39.5
	c2.7,11.6,4.5,23.3,5.6,35.1c1.1,11.5,1.6,23.1,1.5,34.6c0,0.7,0.2,1.3,0.3,2c0,72.5,0,145,0,217.5c-0.7,2.4-2.1,4.1-4.6,4.7
	c-0.5,0.1-1,0.3-1.4,0.5c-2.8,0-5.6,0-8.4,0c-0.8-0.1-1.6-0.3-2.4-0.3c-12.8,0-25.6,0-38.4,0c-2,0-4-0.3-6-0.3
	c-1.9,0-3.7,0.3-5.6,0.3c-12.5,0-25,0-37.5,0c-0.8,0-1.6,0.2-2.4,0.3c-2.3,0-4.7,0-7,0c-0.7-0.2-1.4-0.5-2.2-0.7
	c-2.5-0.7-3.7-2.4-3.9-4.9c-0.1-0.9-0.1-1.9-0.1-2.8c0-63.2,0-126.5,0-189.7c0-4.9-0.2-9.8-0.3-14.7c-0.1-8-0.9-15.9-2.4-23.8
	c-1.8-9.3-4.4-18.4-9-26.8c-6-10.8-14.8-18.4-26.5-22.6c-7.9-2.8-16.1-3.3-24.3-3.4c-5.5-0.1-11,0.3-16.4,1.3
	c-19.5,3.5-34.2,13.5-43.3,31.4c-4.1,8.1-6.7,16.7-8.4,25.6c-2.3,11.3-3.1,22.7-3.2,34.2c-0.2,17.8-0.3,35.6-0.3,53.4
	c0,26.7,0.2,53.5,0.3,80.2c0,18.3,0,36.6,0,54.8c0,1.2-0.2,2.5-0.4,3.7c-0.4,1.7-1.3,3-3,3.6c-1,0.4-2,0.7-3,1.1c-3.3,0-6.5,0-9.8,0
	c-0.6-0.1-1.2-0.3-1.8-0.3c-12.5-0.1-25-0.3-37.5-0.3c-15.6,0-31.2,0.2-46.8,0.3c-0.6,0-1.2,0.2-1.8,0.3
	C348.6,584.9,345.5,584.9,342.3,584.9z"/>
<path fill="#1ebab8" d="M148.2,584.9c-0.7-0.2-1.4-0.4-2.2-0.6c-2.2-0.6-3.4-2.1-3.8-4.3c-0.2-1-0.2-2-0.2-3c0-12.8,0-25.7,0-38.5
	c0.1-95.6,0.1-191.2,0.1-286.8c0-14.6-0.1-29.2-0.1-43.9c0-1.3,0.2-2.6,0.4-3.9c0.5-2.1,1.9-3.5,4-3.6c3.5-0.3,7-0.3,10.5-0.4
	c1,0,2,0.2,3,0.2c28.6,0,57.2,0,85.9,0c2.8,0,5.6-0.2,8.4-0.2c1.2,0,2.5,0.2,3.7,0.4c2,0.3,3.2,1.6,3.6,3.5c0.3,1.3,0.5,2.6,0.5,3.9
	c0,26.8,0,53.7,0,80.5c-0.1,67.3-0.2,134.5-0.3,201.8c0,28.7,0.2,57.4,0.3,86.1c0,1.2-0.2,2.3-0.3,3.5c-0.2,2.9-1.9,4.4-4.7,5
	c-0.4,0.1-0.7,0.2-1,0.4c-2.2,0-4.4,0-6.5,0c-0.7-0.1-1.5-0.3-2.2-0.3c-30,0-59.9,0-89.9,0c-0.7,0-1.5,0.2-2.2,0.3
	C152.8,584.9,150.5,584.9,148.2,584.9z"/>
<path fill="#1ebab8" d="M207.4,8.9c1.7,0.3,3.5,0.5,5.2,0.8c13.7,2,25.7,7.7,35.9,16.9c12.2,10.9,19.9,24.5,22.4,40.8
	c3,19.7-1.7,37.5-13.8,53.2c-10.6,13.8-24.5,22.7-41.7,26.2c-14,2.8-27.6,1.3-40.5-4.5c-21.3-9.5-34.9-25.8-40.7-48.5
	c-0.8-3.1-1.1-6.4-1.7-9.6c-0.1-0.4-0.3-0.7-0.4-1c0-3.4,0-6.8,0-10.3c0.3-1.2,0.7-2.3,0.8-3.5c0.9-7.8,3.2-15.1,6.7-22.1
	c4.2-8.3,9.9-15.6,17-21.6c11.3-9.6,24.3-15.3,39.2-16.4c0.4,0,0.7-0.2,1-0.3C200.6,8.9,204,8.9,207.4,8.9z"/>
</svg>
