<?xml version="1.0" encoding="utf-8"?>
<!-- Generator: Adobe Illustrator 18.0.0, SVG Export Plug-In . SVG Version: 6.00 Build 0)  -->
<!DOCTYPE svg PUBLIC "-//W3C//DTD SVG 1.1//EN" "http://www.w3.org/Graphics/SVG/1.1/DTD/svg11.dtd">
<svg version="1.1" id="Layer_1" xmlns="http://www.w3.org/2000/svg" xmlns:xlink="http://www.w3.org/1999/xlink" x="0px" y="0px"
	 viewBox="-20 1004 615.3 90.6" enable-background="new -20 1004 615.3 90.6" xml:space="preserve">
<g>
	<path fill="#1EBAB8" d="M426.3,1056.9c0,5.2,3.5,7.5,8.7,7.5c5.2,0,8.2-4.1,8.7-9.3c-0.6-11.1-11.1-10.5-19.2-10.5v-2.3l9.9-20.9
		h-22.1v-17.5h48.3v2.9l-14,25.6c12.2,2.9,15.7,12.8,15.7,22.7c0,12.8-9.3,26.8-26.8,26.8c-5.9,0-9.9-1.2-14-2.9
		c-7-4.1-12.8-11.6-12.8-21.5C415.3,1056.9,421,1056.9,426.3,1056.9z"/>
	<path fill="#1EBAB8" d="M529.9,1029c0,8.7,0,18,0,26.8c0,16.8-12.8,26.2-29.1,26.2c-15.2,0-28.5-9.3-28.5-26.2c0-8.7,0-18,0-26.8
		c0-16.8,12.8-26.2,28.5-26.2C517,1002.8,529.9,1012.1,529.9,1029z M511.8,1030.8c0-8.2,0,7,0-1.2c0-5.9-4.7-9.3-10.5-9.3
		c-5.9,0-9.9,2.9-9.9,9.3c0,8.2,0-7,0,1.2c0,5.9,4.7,9.3,9.9,9.3C507.2,1040.1,511.8,1037.1,511.8,1030.8z"/>
	<path fill="#1EBAB8" d="M558.4,1030.2c17.5-1.2,34.9,2.9,34.9,25c0.6,12.8-9.3,26.8-26.8,26.8c-14.5,0-25-9.3-25.6-25h16.8
		c0.6,5.2,3.5,7.5,8.7,7.5s8.7-2.9,8.7-9.3c-0.6-4.7-2.9-7-7-8.2c-7.5-2.3-20.4-0.6-26.2-0.6v-42.5h47.7v16.8h-31.4L558.4,1030.2
		L558.4,1030.2z"/>
	<path fill="#383838" d="M84.2,1066.8h32v15.2H67.3v-77.4h16.8L84.2,1066.8L84.2,1066.8z"/>
	<path fill="#383838" d="M147.6,1068.6l-6.4,12.8h-17.5v-2.3l36.6-75.6h7.5l35.5,76.2v2.3h-17.5l-5.9-12.8L147.6,1068.6
		L147.6,1068.6z M153.4,1054.6H175l-10.5-25.6L153.4,1054.6z"/>
	<path fill="#383838" d="M261.7,1041.8c7,2.9,11.1,9.3,11.1,17.5c0,14-8.7,22.7-24.5,22.7h-36.1v-77.4h33.2
		c14.5,0,24.5,8.7,24.5,22.7C269.2,1033.1,266.3,1038.3,261.7,1041.8z M228.5,1018.5v17.5h15.2c5.9,0,9.3-2.9,9.3-8.2
		c0-5.9-3.5-9.3-9.3-9.3H228.5L228.5,1018.5z M228.5,1049.4v17.5h18.6c5.9,0,8.7-3.5,9.3-8.7c0-2.9-1.2-5.9-3.5-7.5
		c-1.8-1.2-4.1-1.8-6.4-1.8h-18V1049.4L228.5,1049.4L228.5,1049.4z"/>
	<path fill="#383838" d="M333.8,1018.5H303v15.7h29v14.5h-29v17.5h32v15.2h-48.8V1004h47.7v14.5H333.8z"/>
	<path fill="#383838" d="M366.3,1066.8H399v15.2h-48.8v-77.9H367v62.9L366.3,1066.8L366.3,1066.8z"/>
</g>
<g>
	<path fill="#BCBBBB" d="M-14.2,1037.8v21.2c2.3-2.4,4.9-3.6,7.8-3.6c3.4,0,6.2,1.3,8.4,3.8s3.4,5.6,3.4,9.3c0,3.8-1.1,7-3.4,9.5
		c-2.2,2.5-5.1,3.7-8.5,3.7c-2.9,0-5.5-1.1-7.7-3.3v2.6H-20v-43.2H-14.2z M-0.5,1068.7c0-2.4-0.6-4.3-1.9-5.8
		c-1.3-1.5-3-2.3-4.9-2.3c-2.1,0-3.8,0.7-5.2,2.2c-1.3,1.5-2,3.4-2,5.7c0,2.4,0.6,4.4,1.9,5.8c1.3,1.5,3,2.2,5.1,2.2
		c2,0,3.7-0.7,5-2.2C-1.2,1072.8-0.5,1071-0.5,1068.7z"/>
	<path fill="#BCBBBB" d="M18.4,1076.4l-11.3-20.3h6.7l7.6,14.3l7.1-14.3H35l-19.9,38.5H8.5L18.4,1076.4z"/>
</g>
</svg>
